<svg width="357" height="216" viewBox="0 0 357 216" fill="none" xmlns="http://www.w3.org/2000/svg">
<g clip-path="url(#clip0_199_48736)">
<path d="M304.681 49.4689C310.296 51.2632 316.23 60.1148 311.61 65.3675C312.434 65.6174 313.391 66.0037 313.574 66.8439C313.922 68.4382 312.455 71.9799 311.832 73.4281C310.749 75.9525 308.947 78.1913 306.293 79.1406C307.431 79.8239 308.57 80.5048 309.71 81.1904C310.17 81.4665 310.636 81.7495 310.976 82.1618C312.283 83.7554 312.141 86.9227 312.842 88.8871C313.669 91.1864 314.423 93.4698 314.91 95.8697C315.458 98.5558 315.747 101.288 315.79 104.028C315.813 105.524 316.4 110.36 314.599 111.172C314.39 111.266 314.152 111.273 313.919 111.28C313.005 111.301 312.089 111.325 311.176 111.346C311.954 111.787 312.734 112.231 313.513 112.672C313.867 112.872 314.237 113.093 314.434 113.448C314.937 114.368 314.193 116.801 313.991 117.807C313.526 120.131 312.497 122.482 311.545 124.637C309.644 128.935 307.136 132.971 304.088 136.553C301.9 139.124 297.892 144.39 294.091 144.162C293.405 144.121 292.737 143.926 292.071 143.761C290.993 143.497 289.893 143.307 288.79 143.202C289.492 144.441 290.203 145.695 290.617 147.058C291.953 151.418 289.917 157.515 288.434 161.642C286.704 166.45 284.189 170.968 281.064 175.005C279.705 176.76 277.513 179.401 274.968 178.116C274.139 177.698 273.397 176.844 272.484 177.019C272.604 177.852 273.342 178.453 273.711 179.212C274.143 180.104 274.03 181.203 273.551 182.072C270.662 187.329 261.58 190.48 256.18 191.918C255.389 192.129 254.591 192.315 253.789 192.483C251.336 192.983 248.849 193.282 246.353 193.463C244.515 193.597 241.956 194.219 240.314 193.197C239.261 192.541 238.429 191.552 237.305 191.025C237.535 191.704 237.631 192.477 237.301 193.114C236.688 194.304 235.521 193.66 234.53 193.642C231.444 193.595 228.076 193.426 225.767 191.379C224.046 189.854 223.254 187.566 222.56 185.378C216.15 165.136 212.417 144.05 211.484 122.843C210.861 108.624 211.394 93.8725 205.773 80.7891C205.251 79.5693 235.265 67.1898 240.618 66.0929C259.417 62.2322 288.848 60.2396 304.681 49.4689Z" stroke="#147F82" stroke-opacity="0.34" stroke-width="2.03" stroke-miterlimit="10"/>
<path d="M213.038 86.163C217.768 93.0821 217.283 102.869 216.841 111.77C216.657 115.487 216.483 119.002 216.657 122.24C217.171 143.909 223.316 163.983 234.425 180.293C235.447 181.772 236.514 183.223 237.626 184.644C236.561 183.19 235.542 181.709 234.569 180.199C223.935 163.857 217.949 143.81 217.258 122.23C217.098 119.168 217.223 115.849 217.355 112.334C217.698 103.152 218.077 93.054 213.041 86.1653L213.038 86.163Z" fill="#147F82" fill-opacity="0.34"/>
<path d="M215.135 84.8522C216.509 86.3682 217.703 88.1469 218.669 90.1349C223.66 99.7728 223.036 110.388 222.435 120.657C222.104 126.28 221.765 132.096 222.337 137.719C223.442 147.738 227.234 157.838 233.61 167.733C237.406 173.648 242.038 179.159 247.265 184.027C242.195 179.06 237.752 173.526 233.99 167.492C227.701 157.396 224.012 147.356 223.017 137.649C222.443 132.221 222.733 126.506 223.016 120.978C223.55 110.482 224.101 99.634 218.841 90.0449C217.815 88.076 216.56 86.3305 215.138 84.8545L215.135 84.8522Z" fill="#147F82" fill-opacity="0.34"/>
<path d="M207.362 82.1939C208.538 83.4597 209.695 84.7817 210.44 86.3168C211.449 88.2602 211.711 90.508 211.965 92.6789L212.824 100.387L213.328 105.321C213.406 101.527 213.202 97.5161 212.706 93.1392L212.66 92.7572C212.384 90.4816 212.098 88.1267 210.862 86.0943C209.944 84.5139 208.664 83.2745 207.362 82.1985L207.362 82.1939Z" fill="#147F82" fill-opacity="0.34"/>
<path d="M213.272 111.362C212.737 115.235 212.456 120.38 214.312 125.026L213.92 122.161C213.586 120.11 213.54 118.019 213.498 116C213.465 114.48 213.429 112.916 213.272 111.362Z" fill="#147F82" fill-opacity="0.34"/>
<path d="M215.304 132.966C214.881 133.655 214.937 134.31 215.472 134.914C215.894 134.23 215.839 133.575 215.304 132.966Z" fill="#147F82" fill-opacity="0.34"/>
<path d="M215.946 143.725C215.933 156.309 220.094 169.131 227.656 179.499C228.594 180.79 229.562 182.055 230.53 183.32C231.548 184.653 232.587 186.011 233.591 187.399C232.412 185.52 231.147 183.705 229.904 181.924C227.968 179.144 225.961 176.272 224.334 173.224C219.453 164.266 216.586 154.147 215.946 143.725Z" fill="#147F82" fill-opacity="0.34"/>
<path d="M216.424 83.3146C229.75 91.2441 234.374 104.301 239.224 117.989C241.886 125.506 244.64 133.278 248.947 140.466C254.187 149.106 262.153 155.076 271.26 161.438L275.761 164.554L271.363 161.295C262.439 154.794 254.633 148.713 249.455 140.147C245.368 133.181 242.657 125.63 240.029 118.328C234.992 104.317 230.192 90.9537 216.428 83.31L216.424 83.3146Z" fill="#147F82" fill-opacity="0.34"/>
<path d="M216.111 83.2053C221.662 86.9143 226.401 91.9122 229.864 97.804C234.396 105.333 236.484 114.046 238.503 122.472L239.224 125.467C241.865 136.662 245.689 145.449 250.924 152.329C254.814 157.635 259.29 162.388 264.229 167.167C256.169 158.897 248.577 150.061 244.187 139.299C241.947 133.815 240.525 127.974 239.149 122.327C238.246 118.613 237.31 114.773 236.151 111.066C232.876 99.2206 225.519 89.1705 216.108 83.2076L216.111 83.2053Z" fill="#147F82" fill-opacity="0.34"/>
<path d="M214.554 84.5584C219.278 87.9337 222.705 92.35 224.988 96.0107C229.881 103.987 231.59 113.236 233.24 122.183C234.486 128.937 235.775 135.921 238.424 142.334C240.468 147.562 243.086 152.5 246.238 157.088C243.267 152.4 240.795 147.403 238.861 142.172C236.439 135.871 235.178 129.113 233.959 122.576C232.62 115.389 231.232 107.956 228.296 101.113C224.95 93.9779 220.143 88.2485 214.554 84.5584Z" fill="#147F82" fill-opacity="0.34"/>
<path d="M256.318 170.492C258.946 174.183 262.887 176.744 266.714 179.229L267.584 179.793C268.016 180.102 268.469 180.385 268.919 180.666C269.55 181.06 270.197 181.46 270.778 181.938C270.233 181.32 269.561 180.794 268.901 180.279C268.537 179.995 268.173 179.711 267.839 179.416C266.571 178.437 265.238 177.492 263.944 176.577C261.329 174.728 258.639 172.824 256.315 170.49L256.318 170.492Z" fill="#147F82" fill-opacity="0.34"/>
<path d="M214.859 84.2249C220.057 88.3937 224.174 93.5342 226.789 99.216C230.081 106.317 230.625 114.214 231.15 121.852C231.269 123.572 231.386 125.289 231.535 126.993C232.885 143.274 238.946 158.781 248.799 171.483C239.296 158.382 233.477 142.845 232.22 126.931C232.049 125.156 231.916 123.357 231.782 121.554C231.212 113.927 230.622 106.04 227.202 99.0261C224.468 93.3196 220.211 88.2456 214.864 84.2248L214.859 84.2249Z" fill="#147F82" fill-opacity="0.34"/>
<path d="M219.133 88.6833C225.862 97.1788 226.362 108.849 226.846 120.201C227.012 124.063 227.168 127.709 227.56 131.231C228.956 142.376 233.198 153.92 240.913 167.555C241.695 168.925 242.485 170.268 243.262 171.572C242.531 170.235 241.79 168.856 241.066 167.47C235.968 157.866 229.903 145.056 228.24 131.146C227.866 127.855 227.689 124.419 227.5 120.784C226.894 109.08 226.268 97.0519 219.136 88.6856L219.133 88.6833Z" fill="#147F82" fill-opacity="0.34"/>
<path d="M250.719 182.368C252.958 185.474 256.009 187.991 259.473 189.592C256.514 187.166 253.661 184.815 250.719 182.368Z" fill="#147F82" fill-opacity="0.34"/>
<path d="M258.69 181.881C259.718 183.957 261.519 185.608 263.668 186.444C262.071 184.811 260.502 183.371 258.69 181.881Z" fill="#147F82" fill-opacity="0.34"/>
<path d="M224.428 181.889C225.983 185.204 228.258 188.123 231.085 190.429C228.994 187.502 226.805 184.691 224.428 181.889Z" fill="#147F82" fill-opacity="0.34"/>
<path d="M216.621 81.4199C228.181 85.8732 237.684 93.3904 243.374 102.783C245.649 106.635 247.563 110.783 249.416 114.792C251.582 119.485 253.825 124.335 256.656 128.756C263.822 140.577 271.419 148.758 279.702 153.52C274.678 150.427 269.894 146.054 265.403 140.446C259.647 133.173 254.617 124.79 250.456 115.532L249.66 113.8C247.927 110.009 246.134 106.09 243.879 102.466C238.055 92.9142 228.371 85.5103 216.616 81.4199L216.621 81.4199Z" fill="#147F82" fill-opacity="0.34"/>
<path d="M220.949 84.1619C230.464 89.2565 238.4 97.2573 243.417 107.014C246.017 111.929 248.861 118.714 251.369 124.702C252.559 127.548 253.707 130.283 254.763 132.679C259.409 145.322 266.908 151.937 276.287 157.471C266.932 151.531 259.825 144.904 255.311 132.441C254.476 130.494 253.572 128.317 252.629 126.037C249.915 119.486 246.837 112.06 243.941 106.73C238.915 97.02 230.655 89.0102 220.949 84.1619Z" fill="#147F82" fill-opacity="0.34"/>
<path d="M220.252 84.2677C229.761 90.9502 239.223 98.8291 242.643 110.489C243.258 112.378 243.834 114.296 244.411 116.218C245.813 120.883 247.263 125.712 249.327 130.197C251.291 134.686 253.587 138.997 256.184 143.077C251.992 135.804 248.657 128.153 246.241 120.255C245.882 119.062 245.542 117.855 245.199 116.645C243.657 111.204 242.062 105.577 238.788 100.826C233.913 93.8521 227.032 88.615 220.252 84.2677Z" fill="#147F82" fill-opacity="0.34"/>
<path d="M264.856 162.079C268.677 166.18 273.327 169.465 278.457 171.683C273.741 168.583 269.269 165.422 264.856 162.079Z" fill="#147F82" fill-opacity="0.34"/>
<path d="M250.83 158.385C252.912 162.259 256.138 165.619 259.913 167.85C256.674 164.815 253.685 161.703 250.83 158.385Z" fill="#147F82" fill-opacity="0.34"/>
<path d="M216.184 81.554C239.707 87.9744 244.822 95.9979 252.752 108.44C256.79 114.777 261.368 121.959 269.312 130.818C273.937 135.819 278.803 140.014 283.852 143.354C278.946 139.873 274.191 135.574 269.647 130.509C262.222 122.017 257.694 114.94 253.701 108.694C245.36 95.6532 239.982 87.2424 216.184 81.554Z" fill="#147F82" fill-opacity="0.34"/>
<path d="M231.847 88.0983C236.01 90.9092 239.783 94.2059 243.111 97.9468C247.595 102.837 250.803 108.705 253.907 114.379L254.825 116.052C261.067 126.846 269.09 136.534 278.241 144.38C269.06 135.83 261.397 126.209 255.417 115.709L254.155 113.463C251.076 107.952 247.892 102.257 243.444 97.6457C240.007 93.95 236.066 90.7153 231.842 88.0984L231.847 88.0983Z" fill="#147F82" fill-opacity="0.34"/>
<path d="M264.016 136.122C266.326 140.447 269.904 144.212 274.099 146.731C270.439 143.408 267.121 139.916 264.016 136.122Z" fill="#147F82" fill-opacity="0.34"/>
<path d="M217.454 79.0607C223.494 80.4413 229.275 83.4467 235.109 86.6988C236.492 87.4804 237.905 88.2127 239.313 88.9452C241.938 90.3043 244.649 91.7117 247.087 93.4197C250.913 96.0981 253.992 99.6312 256.748 103.055L257.643 104.179C262.978 110.895 268.494 117.842 274.701 123.987C279.507 128.789 284.28 132.73 289.142 135.899C284.433 132.603 279.762 128.558 275.017 123.675C268.822 117.301 263.321 110.372 257.28 102.626C254.673 99.3949 251.465 95.7113 247.437 92.9226C244.752 91.0836 241.838 89.6056 239.022 88.1781C237.787 87.5515 236.555 86.9273 235.338 86.2726C229.664 83.2244 223.702 80.2624 217.461 79.0583L217.454 79.0607Z" fill="#147F82" fill-opacity="0.34"/>
<path d="M256.071 109.318C263.181 120.692 272.738 130.368 284.012 137.617C273.306 129.606 263.931 120.113 256.071 109.318Z" fill="#147F82" fill-opacity="0.34"/>
<path d="M216.445 79.6633C236.172 82.307 250.073 88.9588 258.792 99.8909C264.534 106.895 270.871 114.226 278.296 120.417C283.533 124.814 288.93 128.412 294.419 131.168C289.052 128.255 283.754 124.541 278.591 120.069C271.061 113.576 264.617 105.997 259.308 99.4415C250.309 88.2434 235.911 81.6073 216.443 79.6657L216.445 79.6633Z" fill="#147F82" fill-opacity="0.34"/>
<path d="M218.96 77.6124C234.658 78.3393 250.24 84.7491 262.787 95.8439C265.065 97.7911 267.302 99.8971 269.469 101.934C274.193 106.377 279.082 110.972 284.797 114.361C290.13 117.629 295.827 120.234 301.634 122.082C295.938 120.097 290.379 117.393 285.026 114.005C279.409 110.522 274.546 105.905 269.838 101.441C267.699 99.4089 265.485 97.3121 263.223 95.3345C250.615 84.2028 234.59 77.8852 218.957 77.6147L218.96 77.6124Z" fill="#147F82" fill-opacity="0.34"/>
<path d="M292.546 126.723C296.251 129.167 300.449 130.788 304.818 131.464C300.699 129.851 296.676 128.301 292.546 126.723Z" fill="#147F82" fill-opacity="0.34"/>
<path d="M223.644 76.1315C238.924 77.0483 254.024 82.5223 266.039 91.6537C267.256 92.5579 268.458 93.4901 269.663 94.4247C271.979 96.2199 274.375 98.0752 276.874 99.7221C285.001 105.01 294.332 109.204 305.212 112.443C303.9 111.999 302.604 111.539 301.335 111.064C291.724 107.523 283.829 103.655 277.201 99.2392C274.741 97.5943 272.366 95.7272 270.069 93.9225C268.868 92.9785 267.666 92.0323 266.442 91.1119C254.12 81.7895 238.881 76.5124 223.644 76.1315Z" fill="#147F82" fill-opacity="0.34"/>
<path d="M221.347 80.0366C240.273 82.7659 259.969 89.1216 272.519 108.542C275.695 112.979 279.397 116.603 283.442 119.265C279.536 116.48 276.001 112.8 272.876 108.26C262.79 92.0226 245.891 82.7487 221.347 80.0366Z" fill="#147F82" fill-opacity="0.34"/>
<path d="M225.938 77.407C241.342 79.9875 254.4 85.2612 264.834 93.1252C267.422 95.1002 270.007 97.2197 272.503 99.27C279.633 105.125 287.007 111.179 295.666 114.814C297.059 115.407 298.477 115.922 299.91 116.356C298.495 115.866 297.102 115.297 295.737 114.653C287.37 110.857 280.248 104.913 273.36 99.1651C270.723 96.9668 267.996 94.6899 265.244 92.5717C254.543 84.5885 241.073 79.4091 225.941 77.4046L225.938 77.407Z" fill="#147F82" fill-opacity="0.34"/>
<path d="M222.849 74.6341C237.614 75.1097 252.648 76.0985 265.788 83.1201C268.982 84.8034 272.053 86.856 275.024 88.8419C278.849 91.3991 282.805 94.0438 287.114 95.9676C290.846 97.6675 294.83 98.9853 298.953 99.8778C301.289 100.358 303.664 100.696 306.055 100.888C291.167 99.0312 283.794 94.0358 276.031 88.7778C265.435 81.6005 254.502 74.1927 222.849 74.6341Z" fill="#147F82" fill-opacity="0.34"/>
<path d="M227.852 76.8343C233.859 77.6743 240.664 78.6057 244.56 79.1083L246.29 79.3438C249.783 79.8146 253.394 80.3008 256.76 81.4558C263.703 83.8247 269.728 88.3086 275.552 92.6449C282.973 98.1668 290.647 103.878 300.235 105.188C301.727 105.435 303.235 105.618 304.742 105.76C298.892 104.977 293.512 103.664 288.596 100.833C283.698 97.9978 279.626 94.9483 275.693 91.998C266.654 85.2231 258.85 79.3709 244.624 78.6624C240.394 78.1742 233.67 77.4473 227.852 76.8343Z" fill="#147F82" fill-opacity="0.34"/>
<path d="M221.594 73.1613C227.324 70.884 233.771 70.114 240.223 70.9387C248.535 71.9233 256.737 74.1025 264.591 77.4129C279.043 83.608 292.304 87.6956 304.863 89.8094C296.129 88.0308 286.804 85.3081 276.598 81.5666C273.789 80.5517 270.982 79.3689 268.266 78.225C263.292 76.1271 258.149 73.9605 252.789 72.7493C244.451 70.5712 232.153 68.2431 221.608 73.1519C221.594 73.1567 221.578 73.1638 221.562 73.1709C221.576 73.1661 221.587 73.1637 221.601 73.1589L221.594 73.1613Z" fill="#147F82" fill-opacity="0.34"/>
<path d="M250.654 74.6014C258.304 76.3351 265.328 80.1325 272.157 83.8312C273.563 84.594 274.969 85.3521 276.378 86.0938C283.933 90.3113 292.741 93.2107 303.186 94.9102C294.287 92.9558 285.131 90.2923 276.687 85.4828C275.464 84.8538 274.231 84.2016 272.994 83.5494C265.877 79.7947 258.563 75.9343 250.654 74.6014Z" fill="#147F82" fill-opacity="0.34"/>
<path d="M229.32 71.3528C237.965 69.6908 246.779 68.5311 255.511 70.0625C258.466 70.5913 261.414 71.4512 264.264 72.2839L266.345 72.8873C276.887 75.8824 288.455 76.7871 299.802 75.5067C301.111 75.3516 302.417 75.1663 303.716 74.9553C302.407 75.1104 301.098 75.2375 299.784 75.3367C288.068 76.2913 276.878 75.246 266.528 72.2261L264.575 71.6752C261.669 70.8523 258.663 69.9998 255.618 69.4741C246.995 67.9954 238.446 69.23 229.322 71.3551L229.32 71.3528Z" fill="#147F82" fill-opacity="0.34"/>
<path d="M256.339 72.2707C272.566 78.2929 288.509 81.4171 303.866 81.5919C289.016 80.5526 273.377 77.4867 256.339 72.2707Z" fill="#147F82" fill-opacity="0.34"/>
<path d="M226.963 71.3368C235.778 68.6686 244.825 66.4811 254.103 66.8587C260.464 67.0943 266.939 68.0983 273.199 69.0714C283.066 70.6054 293.238 72.1836 303.285 70.7947C302.46 70.8806 301.61 70.9457 300.734 70.9901C291.671 71.4058 282.001 69.8632 272.647 68.3718C270.339 68.0033 268.06 67.6393 265.828 67.3122C256.249 65.9415 249.023 65.8854 242.39 67.1325C237.185 68.0417 232.261 69.5036 226.96 71.3392L226.963 71.3368Z" fill="#147F82" fill-opacity="0.34"/>
<path d="M249.752 64.1915C253.643 63.6356 257.6 63.1957 261.522 63.29C264.523 63.3288 267.55 63.8361 270.478 64.3301C273.005 64.7574 275.618 65.1957 278.238 65.3401C287.915 65.9523 297.722 64.2623 306.357 60.5487C297.236 63.9095 287.625 65.3251 278.283 64.6543C275.773 64.5579 273.228 64.1541 270.769 63.7612C267.764 63.2841 264.658 62.7915 261.525 62.8354C257.543 62.8534 253.583 63.4332 249.747 64.1915L249.752 64.1915Z" fill="#147F82" fill-opacity="0.34"/>
<path d="M271.279 62.4654C283.926 63.4827 296.854 61.229 308.387 55.9929C296.554 60.3198 283.868 62.5342 271.279 62.4654Z" fill="#147F82" fill-opacity="0.34"/>
<path d="M251.492 65.4435C258.524 65.2167 265.648 66.0407 272.585 66.8428C283.242 68.072 294.213 69.3406 304.771 66.7586C295.031 68.5973 285.065 67.5211 275.379 66.4799C267.523 65.6339 259.45 64.7639 251.492 65.4435Z" fill="#147F82" fill-opacity="0.34"/>
<path d="M262.483 69.3885C264.695 69.7694 266.844 70.4259 268.941 71.0688C271.153 71.7458 273.438 72.4432 275.768 72.8114C280.454 73.669 285.052 73.9374 289.474 73.6034C284.569 73.4167 280.109 72.9327 275.897 72.1343C274.004 71.8488 272.092 71.3512 270.245 70.8718C267.714 70.2137 265.115 69.5398 262.483 69.3885Z" fill="#147F82" fill-opacity="0.34"/>
<path d="M292.561 100.743C296.524 103.339 301.595 104.335 306.771 103.536C306.082 103.478 305.397 103.428 304.713 103.38C303.003 103.261 301.237 103.137 299.543 102.832C297.58 102.523 295.731 101.867 293.778 101.171C293.373 101.028 292.968 100.884 292.561 100.743Z" fill="#147F82" fill-opacity="0.34"/>
<path d="M300.127 84.8511C303.563 86.4531 307.233 86.9738 310.465 86.3206C307.717 86.1143 305.115 85.6782 302.381 85.2223C301.634 85.0977 300.886 84.9732 300.127 84.8511Z" fill="#147F82" fill-opacity="0.34"/>
<path d="M288.095 60.0731C292.401 59.5232 296.96 57.9104 301.951 55.1703C299.371 55.9931 296.834 56.9275 294.369 57.8357C292.325 58.5889 290.224 59.3612 288.095 60.0731Z" fill="#147F82" fill-opacity="0.34"/>
<path d="M272.281 117.287C276.29 122.209 280.462 126.692 285.952 129.112C282.29 126.747 279.14 123.744 276.078 120.829C274.845 119.654 273.58 118.447 272.281 117.287Z" fill="#147F82" fill-opacity="0.34"/>
<path d="M220.659 93.3923C223.468 100.462 223.792 108.216 224.109 115.766C224.326 120.968 224.55 126.352 225.587 131.435C225.878 133.758 226.379 136.19 226.865 138.543L227.166 140.003C229.094 145.813 231.522 151.571 233.87 157.139C234.082 157.643 234.295 158.147 234.507 158.651C233.849 156.864 233.183 155.088 232.526 153.342C230.87 148.944 229.157 144.398 227.708 139.851L227.406 138.317C226.953 136.015 226.485 133.634 226.223 131.349C225.285 126.616 225.015 121.538 224.753 116.63C224.333 108.706 223.9 100.568 220.659 93.3923Z" fill="#147F82" fill-opacity="0.34"/>
<path d="M207.873 82.1781C212.716 86.077 214.797 91.8494 215.671 96.6289C215.493 92.8836 214.446 89.2502 212.647 86.2174L212.89 86.022C216.059 88.9878 218.032 92.1964 218.78 95.592C218.15 88.1782 211.014 82.9688 208.479 81.3409L207.871 82.1711L207.873 82.1781Z" fill="#147F82" fill-opacity="0.34"/>
<path d="M206.183 81.5016C206.702 82.1922 207.199 82.9716 207.702 83.8721C209.863 87.76 211.069 92.1592 211.191 96.6067L211.545 96.5992C211.423 92.0957 210.203 87.6407 208.011 83.6995C207.501 82.7826 206.992 81.9917 206.463 81.2872L206.183 81.5016Z" fill="#147F82" fill-opacity="0.34"/>
<path d="M209.68 80.4802C216.537 84.3256 222.688 89.3215 227.997 95.3639C224.176 88.8059 216.84 82.845 209.68 80.4802Z" fill="#147F82" fill-opacity="0.34"/>
<path d="M221.699 73.8319C227.724 73.3731 233.691 73.1619 239.86 73.1915C233.908 71.7309 227.547 71.9523 221.699 73.8319Z" fill="#147F82" fill-opacity="0.34"/>
<path d="M209.69 79.3913C211.171 79.9692 212.762 80.2339 214.31 80.4942C215.478 80.69 216.683 80.8901 217.835 81.2236C219.097 81.5212 220.357 81.8771 221.627 82.2329C223.011 82.6228 224.434 83.024 225.881 83.3551C223.349 81.9486 220.726 80.8995 218.066 80.2308C216.161 79.7169 214.188 79.6302 212.277 79.5453C211.426 79.5079 210.556 79.4706 209.688 79.3936L209.69 79.3913Z" fill="#147F82" fill-opacity="0.34"/>
<path d="M-0.000641995 -22.05C3.50795 -20.3809 6.85506 -18.2885 10.1459 -16.2283L10.3265 -16.1155C24.3166 -7.47802 37.7152 2.4489 50.6724 12.0483C64.449 22.2543 78.6977 32.8086 93.6942 41.8483C111.628 52.7669 131.13 60.6676 151.659 65.3332C155.887 66.346 160.114 67.3215 164.336 68.2924C170.15 69.6305 176.164 71.0136 182.033 72.4796C192.487 75.1209 201.824 77.7736 210.018 83.4455C207.926 78.2491 201.819 75.9854 197.741 74.4724C193.226 72.9047 188.304 71.4125 182.701 69.9119C176.05 68.1212 169.22 66.5558 162.615 65.0492C149.303 62.0065 135.54 58.8578 122.623 53.681C113.591 50.1375 104.481 45.6714 94.768 40.0304C79.9275 31.458 65.7221 21.2835 51.9863 11.4455C38.6519 1.89579 24.8644 -7.97905 10.4964 -16.392C7.06371 -18.4114 3.59587 -20.4516 -0.000589204 -22.0453L-0.000641995 -22.05Z" fill="#147F82" fill-opacity="0.34"/>
</g>
<defs>
<clipPath id="clip0_199_48736">
<rect width="163.955" height="339.089" fill="white" transform="matrix(0.700854 -0.713304 -0.713304 -0.700854 241.873 215.602)"/>
</clipPath>
</defs>
</svg>
