<svg width="297" height="338" viewBox="0 0 297 338" fill="none" xmlns="http://www.w3.org/2000/svg">
<g clip-path="url(#clip0_197_5897)">
<path d="M249.55 196.709C206.733 177.465 143.331 204.697 140.403 254.902C139.477 270.752 143.861 287.007 152.806 300.101C168.667 323.315 196.684 336.438 224.638 337.872C242.684 338.795 261.72 334.861 275.467 323.052C288.061 312.237 294.991 295.741 296.568 279.146C299.765 245.472 280.24 210.506 249.558 196.716L249.55 196.709Z" fill="#DFFBFB"/>
<path d="M132.327 0.0426045C98.5755 -0.901847 64.074 13.2933 42.3859 39.5178C36.1772 47.0237 30.8524 55.6587 29.4027 65.295C27.9531 74.9312 31.0575 85.6894 38.9562 91.3846C46.954 97.1436 57.9289 96.6678 67.3692 93.8344C76.8025 91.0011 85.5499 86.1155 95.0822 83.6088C107.556 80.3281 120.702 81.2938 133.579 82.0395C146.456 82.7851 159.715 83.2253 171.899 78.9931C184.09 74.7608 195.129 64.805 196.925 52.0229C201.939 16.4178 159.878 0.816629 132.327 0.0426045Z" fill="#E1F2F2"/>
<path d="M192.505 180.142C193.602 176.208 194.429 172.203 195.157 168.176C195.73 170.044 196.451 171.883 197.392 173.523C198.12 174.802 199.245 175.775 200.609 175.973C200.27 178.104 199.846 180.227 199.421 182.322C198.021 189.174 196.183 196.247 196.607 203.299C196.876 207.786 198.764 214 204.06 214.561C210.651 215.257 210.905 205.358 211.082 200.856C211.245 196.765 210.948 192.732 210.283 188.699C209.59 184.438 208.833 179.936 207.348 175.867C206.846 174.496 205.001 175.05 205.206 176.463C205.906 181.164 207.462 185.73 208.246 190.424C209.038 195.161 209.505 199.975 208.876 204.761C208.621 206.686 208.381 209.171 207.32 210.84C205.8 213.24 202.943 211.692 201.621 209.931C199.506 207.105 199.499 203.093 199.676 199.734C200.114 191.397 202.837 183.401 203.714 175.128C207.447 172.636 208.36 165.684 209.244 162.012C210.905 155.11 212.058 148.101 212.56 141.014C212.786 137.734 213.069 134.297 212.758 131.016C212.574 129.056 211.895 127.16 209.887 126.514C209.427 126.365 209.017 126.691 208.862 127.103C207.73 130.121 206.62 133.146 205.51 136.179C204.088 129.191 204.633 122.104 204.633 114.967C204.633 107.177 204.138 99.487 203.035 91.7751C201.133 78.4605 198.368 62.9658 187.11 54.2456C175.803 45.4828 160.316 43.4874 146.492 42.7702C134.293 42.1311 120.907 41.989 109.876 48.0676C104.014 51.2986 99.4313 56.6742 96.7654 62.7883C93.8096 69.5628 92.8903 76.9337 91.971 84.2053C91.8508 85.1711 93.5408 85.4125 93.6823 84.4397C95.3653 72.5736 97.6918 58.5205 108.773 51.7389C118.849 45.5751 131.019 45.0496 142.503 45.4615C156.116 45.9515 171.107 47.2936 182.902 54.8208C194.896 62.4687 198.163 76.5503 200.425 89.7442C201.868 98.1732 202.752 106.808 202.943 115.365C203.12 123.233 202.674 131.314 204.619 139.012C204.817 139.8 205.828 139.665 206.083 139.012C207.433 135.518 208.777 132.024 210.106 128.524C211.563 129.759 211.132 133.061 211.11 134.638C211.068 137.272 210.948 139.9 210.757 142.527C210.361 147.959 209.59 153.356 208.466 158.689C207.949 161.146 207.327 163.575 206.627 165.982C205.991 168.169 205.39 170.342 203.94 172.117C203.947 171.308 203.905 170.363 203.721 169.497C204.378 167.921 204.088 165.62 203.261 164.363C201.451 161.608 197.951 161.366 195.532 163.39C195.497 163.419 195.483 163.447 195.461 163.475C195.002 163.205 194.28 163.348 194.174 163.958C193.283 168.929 192.392 173.9 191.077 178.778C189.783 183.607 187.775 188.152 185.293 192.483C179.713 202.212 170.238 207.538 159.934 211.046C149.108 214.731 137.659 216.414 126.239 216.059C120.469 215.882 114.72 215.179 109.077 213.95C103.766 212.786 98.5333 210.598 93.0812 210.265C91.2002 210.151 89.1707 210.364 87.2826 210.961C87.318 208.248 87.0988 205.514 86.8018 202.823C86.328 198.569 85.734 194.33 85.5148 190.048C85.2673 185.155 85.3875 180.248 85.5855 175.356C85.7764 170.562 85.6633 165.421 86.6038 160.713C87.4241 156.601 91.0305 153.796 92.8196 150.083C94.6157 146.362 96.3058 142.854 100.336 141.178C103.731 139.765 107.415 139.466 111.05 139.36C118.362 139.147 126.458 139.253 131.118 132.628C131.338 132.316 131.189 131.769 130.85 131.598C125.143 128.857 118.871 127.671 112.641 127.877C116.891 126.904 121.112 125.875 125.178 124.284C127.484 123.382 129.725 122.331 131.826 121.003C133.41 119.995 135.665 118.717 135.665 116.565C135.665 111.58 127.434 113.682 124.874 114.08C123.983 114.222 123.085 114.364 122.194 114.506C122.194 114.506 122.194 114.506 122.194 114.499C122.194 114.492 122.187 114.485 122.18 114.477C121.855 108.434 116.261 105.374 111.333 103.172C106.68 101.092 102.423 102.427 98.802 105.161C100.633 102.32 102.394 99.4231 103.999 96.4477C104.042 96.3625 104.091 96.2844 104.134 96.1991C105.477 96.1849 106.573 96.3412 107.882 96.8879C108.964 97.3424 110.024 97.8182 111.12 98.2301C113.73 99.2029 116.41 99.9414 119.09 100.659C122.208 101.497 129.867 104.302 130.284 98.8692C130.652 94.0191 125.85 92.7267 122.074 92.2438C116.785 91.5763 111.531 91.5337 106.255 92.2154C107.472 89.8081 108.546 87.2801 108.949 84.7876C109.437 81.7341 107.959 78.9647 104.813 78.4108C101.348 77.8001 98.5616 80.1932 96.4118 82.6076C88.1736 91.8532 81.9932 102.569 76.0956 113.419C76.2371 110.501 76.2017 107.575 76.2088 104.642C76.2088 100.545 76.3361 96.3767 75.9542 92.2935C75.3744 86.1226 72.9701 79.8736 66.8533 77.4379C66.132 77.1539 65.34 77.8782 65.3541 78.5883C65.5875 89.7513 65.4885 100.879 64.2793 111.999C63.657 117.708 62.7306 123.389 61.6204 129.021C60.6446 133.963 59.5556 138.927 56.9038 143.273C56.4159 144.068 57.2644 144.785 57.9645 144.586C57.4978 145.296 57.0452 146.007 56.5714 146.71C54.2591 150.154 52.0457 153.704 50.5607 157.603C49.0191 161.65 48.411 165.982 48.312 170.3C48.1988 175.405 48.7221 180.483 49.1606 185.56C49.6273 190.957 49.9738 196.361 50.2425 201.772C50.787 212.85 50.9001 223.934 51.4093 235.005C51.4305 235.396 52.0033 235.403 52.0174 235.005C52.6751 216.961 51.579 198.697 50.4405 180.688C49.896 172.11 49.5424 163.419 53.3822 155.479C56.8048 148.393 61.8891 142.144 65.9269 135.405C74.0166 121.912 80.7769 107.611 89.7081 94.644C91.9215 91.4272 94.2763 88.3027 96.8149 85.3344C98.0878 83.8431 99.4243 82.1531 101.15 81.1731C102.967 80.1506 106.015 79.9162 106.842 82.3874C107.479 84.3047 106.333 86.6268 105.591 88.3524C104.707 90.4259 103.724 92.4568 102.691 94.4522C100.782 98.1448 98.7101 101.738 96.5038 105.26C85.7764 122.402 73.7196 138.65 62.5609 155.508C62.0447 156.282 63.2822 156.999 63.7984 156.232C65.9411 153.207 68.0413 150.146 70.1273 147.079C71.6689 144.892 73.2105 142.704 74.7662 140.524C78.2029 135.703 81.4063 130.483 85.3097 126.031C89.3121 121.465 94.6581 120.691 100.372 119.91C102.847 119.576 105.322 119.235 107.79 118.887C108.044 118.873 108.299 118.83 108.546 118.781C111.919 118.312 115.293 117.836 118.659 117.346C121.699 116.899 124.747 116.466 127.788 115.997C128.898 115.827 130.022 115.557 131.147 115.614C131.599 115.635 132.278 115.635 132.674 115.898C133.919 116.707 132.731 117.602 131.925 118.184C127.936 121.046 123.312 122.757 118.609 124.036C109.437 126.521 99.5586 127.522 91.2709 132.529C81.9225 138.174 75.9471 148.492 72.0013 158.398C71.7679 158.98 72.666 159.307 72.9771 158.81C75.3885 154.918 77.7928 151.027 80.1971 147.136C80.3385 146.908 80.2748 146.688 80.1334 146.539C90.5638 130.988 112.344 124.646 129.336 132.543C124.676 137.996 115.71 136.818 109.36 137.024C102.345 137.251 96.0583 139.296 93.1307 146.191C92.3528 148.016 91.6952 149.962 90.6628 151.673C89.5809 153.47 87.8979 154.769 86.7311 156.509C84.4611 159.896 84.6309 164.505 84.3268 168.418C83.5772 178.011 83.3085 187.498 84.4965 197.078C85.0763 201.772 85.8047 206.771 85.635 211.635C83.7398 212.53 82.0993 213.879 81.0739 215.768C79.1929 219.241 79.9142 223.906 83.2873 226.122C84.2773 226.768 85.1824 225.191 84.2066 224.538C84.1076 224.474 84.0298 224.396 83.9378 224.325C86.0239 220.895 86.9432 217.117 87.2119 213.226C92.0276 211.429 97.2958 213.212 101.984 214.611C112.344 217.707 123.234 219.006 134.025 218.502C144.653 218.005 155.253 215.825 165.146 211.87C174.099 208.291 181.99 202.986 187.032 194.557C189.698 190.105 191.155 185.134 192.534 180.156L192.505 180.142ZM196.253 164.335C197.866 163.333 200.192 163.369 201.415 164.967C201.854 165.542 202.151 166.245 202.2 166.976C201.72 166.721 201.118 166.628 200.348 166.799C197.767 167.381 198.622 170.939 200.956 171.159C201.034 171.166 201.104 171.159 201.182 171.159C201.111 172.117 201.012 173.076 200.892 174.035C200.836 174.035 200.779 174.035 200.722 174.028C199.563 173.829 198.891 172.629 198.396 171.677C197.222 169.405 196.48 166.891 195.921 164.398C196.034 164.413 196.147 164.398 196.26 164.327L196.253 164.335ZM69.8586 124.888C66.7189 130.611 63.3883 136.157 59.8738 141.618C61.5992 138.06 62.5043 134.155 63.2893 130.263C64.4066 124.71 65.2976 119.115 65.9906 113.498C67.3412 102.569 68.1756 91.4982 67.7655 80.4772C72.9418 83.4455 74.0732 90.3407 74.2429 95.9222C74.448 102.462 74.1793 109.081 74.8935 115.592C73.2176 118.696 71.5558 121.806 69.8586 124.888ZM118.948 93.8274C120.928 94.0759 123.007 94.3386 124.917 94.9564C126.048 95.3186 127.109 95.8938 127.561 97.0584C127.745 97.527 127.894 98.1875 127.738 98.6916C127.484 99.5083 126.861 99.4728 126.041 99.4799C123.856 99.5012 121.494 98.6135 119.401 98.0596C117.414 97.527 115.434 96.9874 113.482 96.3412C111.432 95.6594 108.469 93.8131 105.866 93.5646C110.208 93.2735 114.621 93.2877 118.941 93.8274H118.948ZM95.4148 110.21C95.7613 110.38 96.2068 110.38 96.6028 110.053C98.5333 108.456 100.379 106.631 102.642 105.509C105.357 104.16 107.974 104.309 110.689 105.53C113.73 106.893 117.76 108.704 119.663 111.722C116.572 109.421 112.301 109.066 108.426 108.889C105.76 108.768 103.264 108.917 100.775 109.954C99.4243 110.515 98.1585 111.239 96.822 111.815C95.8037 112.255 94.8208 112.432 93.7954 112.589C94.3399 111.8 94.8773 111.005 95.4077 110.21H95.4148ZM87.9332 121.82C87.5018 122.118 87.0917 122.445 86.6957 122.779C88.6404 120.009 90.5921 117.24 92.5226 114.456C94.3965 115.067 96.6098 114.179 98.3353 113.441C99.0919 113.114 99.8273 112.78 100.556 112.461C100.386 113.313 100.464 114.222 100.831 115.081C101.284 116.132 102.097 116.963 103.059 117.581C97.9181 118.312 92.2043 118.873 87.9403 121.806L87.9332 121.82ZM112.28 115.031C111.99 115.621 111.531 116.026 110.993 116.31C109.89 116.487 108.794 116.672 107.698 116.856C106.333 116.792 105.018 116.558 103.851 115.791C102.522 114.925 101.588 113.093 102.458 111.722C103.497 111.367 104.565 111.112 105.739 111.055C107.578 110.97 109.734 110.941 111.856 111.204C112.379 112.482 113.044 113.49 112.287 115.024L112.28 115.031ZM112.662 116.033C112.789 115.848 112.924 115.67 113.037 115.472C113.673 114.378 114.161 112.851 113.921 111.573C116.219 112.113 118.305 113.114 119.67 114.904C117.336 115.273 114.996 115.649 112.662 116.033ZM76.8594 150.459C77.2978 149.664 77.7574 148.89 78.2312 148.123C78.2453 148.144 78.2595 148.158 78.2736 148.172C77.7999 148.932 77.3261 149.692 76.8594 150.452V150.459ZM82.764 223.011C81.972 221.726 81.7598 220.114 82.071 218.58C82.4741 216.592 83.7752 215.072 85.4299 214.05C85.1046 217.174 84.3056 220.199 82.764 223.011ZM295.968 261.72C284.505 258.439 272.752 256.11 261.134 253.546C252.804 251.714 244.473 249.889 236.143 248.064C228.619 246.417 220.989 244.996 213.571 242.887C206.16 240.778 198.552 237.625 193.46 231.575C192.513 230.453 191.664 229.239 190.929 227.968C194.082 231.284 198.325 233.23 202.95 233.798C215.063 235.296 226.866 228.081 233.725 218.438C236.412 214.66 238.342 210.435 239.516 205.983C252.386 199.151 259.727 185.176 263.397 171.457C265.667 162.964 267.031 154.144 268.113 145.424C268.983 138.43 268.545 131.3 263.736 125.782C256.283 117.226 243.611 116.097 234.17 110.728C228.068 107.256 224.383 102.065 222.729 95.205C220.961 87.8553 221.039 80.1861 218.613 72.9784C213.882 58.9324 202.405 47.5492 188.503 42.7347C192.406 35.9744 190.052 27.0695 184.31 21.907C177.564 15.8426 168.038 17.1635 161.773 23.0006C161.483 21.8147 161.108 20.6501 160.635 19.5352C156.979 10.8718 148.797 6.2419 139.738 5.20513C129.817 4.06895 119.762 6.95912 110.76 10.95C101.963 14.8485 93.8732 20.3448 86.7381 26.7926C71.9518 40.1427 61.7972 57.3843 55.2561 76.11C48.3969 95.7163 41.8275 120.812 19.5383 127.877C16.8866 128.722 14.157 129.234 11.3708 129.262C8.91706 129.283 6.38549 128.609 3.95292 129.063C-1.42844 130.072 -0.50915 136.001 1.93756 139.438C6.83806 146.298 16.3562 147.853 23.4489 143.883C22.8054 146.191 20.6415 147.839 18.7817 149.33C16.4764 151.176 14.2631 153.001 12.8063 155.636C9.78685 161.104 9.86464 167.793 10.989 173.779C13.3226 186.178 20.0192 197.575 29.2333 206.068C34.452 210.883 40.5405 214.667 47.0957 217.345C47.8311 217.643 48.3686 216.379 47.6402 216.045C36.3189 210.861 26.8431 202.07 20.5849 191.283C17.4806 185.936 15.0975 180.262 13.761 174.205C12.4316 168.162 12.1699 161.096 15.7268 155.742C18.7676 151.169 26.1643 148.478 25.3864 142.051C27.7412 141.22 30.0324 140.233 32.2669 139.09C30.5415 142.101 28.9858 145.211 27.6564 148.435C21.9214 162.382 20.8961 179.339 28.6322 192.768C32.6771 199.791 40.1091 207.19 48.8141 206.693C49.6768 206.643 50.2778 205.535 49.5636 204.875C37.7614 193.982 32.3589 176.286 33.6176 160.521C33.6671 159.882 32.7124 159.903 32.6417 160.521C31.68 168.901 32.6417 177.344 35.3783 185.311C37.8251 192.412 41.6366 198.512 46.2825 204.243C32.7407 201.694 25.9026 185.624 25.2874 173.005C24.6581 160.053 29.1767 147.945 35.7956 137.095C37.0896 136.299 38.3554 135.447 39.5929 134.524C47.4988 128.63 54.8248 120.407 58.509 111.119C58.7848 110.43 58.0989 109.762 57.4624 109.741C53.757 109.599 51.1759 113.831 49.0333 116.317C46.2613 119.526 43.5529 122.786 40.9718 126.152C38.8716 128.886 36.8704 131.698 34.9965 134.595C28.4625 138.941 21.0516 142.357 13.3933 143.912C9.29892 143.202 5.42378 140.901 3.35892 137.485C2.19921 135.568 1.19506 132.28 4.08021 131.463C6.14506 130.881 8.66956 131.655 10.7769 131.698C14.9561 131.783 19.0787 130.888 22.9114 129.241C41.1698 121.394 48.8141 101.937 54.7258 84.3544C57.8655 75.0093 61.083 65.7281 65.8421 57.0648C70.2122 49.1186 75.5158 41.6908 81.6891 35.0583C93.753 22.1129 109.826 11.4754 127.399 8.23732C137.186 6.43363 149.377 7.41359 155.847 16.0415C157.813 18.6618 159.199 21.8857 159.751 25.1948C156.441 29.3277 154.567 34.5826 155.076 39.9084C155.175 40.9594 156.3 41.4707 157.113 40.7605C161.434 36.9756 162.876 31.3941 162.275 25.9405C166.037 21.623 171.56 19.0808 177.415 20.7992C186.078 23.3485 191.077 35.2714 185.462 42.7844C184.96 43.459 185.512 44.4389 186.212 44.6449C199.329 48.444 210.219 58.4353 215.495 71.0682C218.267 77.7078 218.825 84.7734 219.907 91.8177C220.897 98.2514 222.891 104.543 227.771 109.081C235.86 116.594 247.436 117.836 256.615 123.482C261.897 126.727 265.249 131.577 265.624 137.911C265.865 142.051 265.143 146.184 264.514 150.26C263.863 154.478 263.191 158.689 262.35 162.872C259.338 177.791 253.32 193.414 240.337 201.935C240.421 201.36 240.513 200.792 240.577 200.217C240.754 198.605 238.555 197.994 237.89 199.471C237.048 201.324 236.2 203.171 235.344 205.017C234.892 205.99 235.387 206.87 236.186 207.126C233.788 214.504 228.98 221.094 222.623 225.511C214.172 231.384 201.09 234.153 192.993 226.15C189.118 222.315 187.06 216.365 189.175 211.117C189.634 209.981 187.69 209.143 187.188 210.272C187.145 210.357 187.124 210.449 187.089 210.535C187.089 210.535 187.089 210.535 187.075 210.535C187.046 210.613 187.025 210.691 186.997 210.769C182.033 222.741 190.349 235.275 200.673 241.062C206.846 244.521 213.79 246.268 220.643 247.801C228.803 249.619 236.978 251.366 245.145 253.148C260.999 256.6 277.009 259.625 292.686 263.807C293.514 264.027 294.341 264.255 295.161 264.489C296.01 264.73 296.866 264.134 296.943 263.253C296.943 263.246 296.943 263.232 296.943 263.225C297.007 262.55 296.569 261.918 295.918 261.734L295.968 261.72ZM47.3149 121.259C48.7434 119.526 50.193 117.815 51.6638 116.111C52.6256 114.996 53.9267 113.015 55.4753 112.212C53.4246 115.876 51.3032 119.384 48.5595 122.637C45.8936 125.79 42.9094 128.666 39.6778 131.229C42.0891 127.799 44.6561 124.49 47.322 121.259H47.3149ZM157.509 36.7768C157.778 34.1423 158.669 31.5149 160.026 29.1502C159.892 31.877 159.107 34.5186 157.509 36.7768ZM120.221 263.672C114.642 249.839 109.105 235.985 103.476 222.166C103.116 221.271 101.652 221.648 102.005 222.571C106.149 233.301 110.35 244.016 114.543 254.732C113.998 254.107 112.902 254.143 112.33 254.924C106.998 262.131 99.3041 267.273 90.6628 269.51C88.9161 269.964 89.6586 272.698 91.4053 272.229C99.5516 270.056 106.779 265.526 112.308 259.234C112.881 268.096 114.656 276.71 117.916 285.047C119.726 289.67 121.904 294.136 124.478 298.376C126.373 301.493 128.947 305.676 133.148 305.214C133.721 305.15 134.378 304.731 134.308 304.049C133.572 297.112 131.041 290.678 128.474 284.251C125.73 277.385 122.979 270.525 120.214 263.665L120.221 263.672ZM124.938 294.108C122.859 290.124 121.077 285.977 119.641 281.716C116.827 273.373 115.087 264.439 114.861 255.62C114.861 255.577 114.847 255.542 114.84 255.499C115.879 258.162 116.926 260.832 117.966 263.495C120.603 270.255 123.255 277.008 125.914 283.762C128.346 289.94 130.949 296.174 131.84 302.793C128.445 301.997 126.338 296.792 124.938 294.101V294.108ZM154.765 101.326C158.647 101.426 162.438 100.723 166.221 99.913C170.506 98.997 174.968 97.9744 179.374 98.4786C182.775 98.8692 185.512 100.218 187.944 102.313C188.998 103.322 189.988 104.401 190.886 105.58C191.749 106.709 193.326 105.516 192.442 104.373C184.939 94.7079 172.854 89.311 160.684 90.7384C156.576 91.2212 148.747 92.6699 148.344 98.0312C147.326 101.298 147.404 105.225 147.673 108.534C147.97 112.269 148.861 115.536 150.346 118.958C150.416 119.129 150.657 119.15 150.798 119.079C152.785 118.035 155.253 117.616 157.41 116.977C158.803 116.565 160.203 116.175 161.61 115.841C161.207 116.601 160.868 117.318 160.932 118.262C161.009 119.462 161.518 120.648 162.183 121.635C163.569 123.688 165.733 124.874 168.194 124.937C172.182 125.037 176.793 121.877 176.291 117.886C177.981 118.667 179.664 119.484 181.417 120.123C181.729 120.265 182.047 120.393 182.379 120.499C182.74 120.613 183.115 120.705 183.496 120.776C184.303 120.989 185.116 121.153 185.95 121.238C187.449 121.401 188.673 120.925 190.073 120.421C191.148 120.151 190.95 118.369 189.804 118.447C188.92 118.504 187.959 118.433 186.99 118.277C185.738 117.311 184.861 115.599 184.069 114.264C183.058 112.56 181.997 110.955 180.633 109.514C177.981 106.702 174.516 104.784 170.612 104.699C166.787 104.614 163.138 106.198 160.189 108.562C156.816 111.268 154.885 115.898 150.834 117.68C150.819 117.687 150.812 117.701 150.791 117.708C150.388 116.707 150.346 114.776 150.275 114.264C149.914 111.509 149.44 108.804 149.299 106.02C149.207 104.223 149.334 102.42 149.391 100.623C150.784 101.525 153.224 101.298 154.751 101.333L154.765 101.326ZM151.986 96.1139C153.994 94.4523 156.844 93.8629 159.348 93.451C164.828 92.5421 170.344 93.2664 175.584 95.0061C177.21 95.5458 178.787 96.2062 180.307 96.9661C179.6 96.8453 178.9 96.7601 178.221 96.7104C171.235 96.1707 164.531 98.5851 157.665 99.352C156.102 99.5296 154.525 99.7071 152.955 99.5509C151.972 99.4515 150.572 99.3947 150.607 98.1875C150.628 97.3779 151.406 96.6039 151.986 96.121V96.1139ZM166.992 121.366C165.797 120.918 164.892 119.988 164.389 118.823C163.986 117.886 163.357 116.523 163.385 115.521C163.385 115.5 163.378 115.486 163.378 115.465C166.956 114.804 169.983 115.315 173.377 116.615C173.837 116.792 174.297 116.984 174.749 117.176C175.881 120.812 169.495 122.296 166.999 121.358L166.992 121.366ZM159.736 111.083C163.074 107.93 168.052 105.7 172.698 106.56C177.245 107.398 180.505 111.232 182.931 114.932C183.461 115.749 184.105 116.835 184.854 117.822C184.253 117.666 183.673 117.495 183.136 117.311C181.05 116.615 179.056 115.649 177.033 114.783C172.564 112.873 168.265 112.07 163.477 113.306C160.953 113.959 158.605 115.081 156.222 116.118C155.55 116.416 154.871 116.7 154.192 117.005C156.25 115.308 157.749 112.965 159.744 111.083H159.736ZM159.39 178.239C154.779 175.27 152.467 169.909 148.245 166.394C146.173 164.668 143.84 163.014 141.33 162.012C138.522 160.891 135.474 161.885 132.54 161.743C129.69 161.601 126.861 161.345 124.125 162.325C122.116 163.049 120.342 164.214 118.666 165.52C114.861 168.503 111.46 172.444 106.694 173.864C105.407 174.248 105.944 176.243 107.245 175.888C107.245 175.888 107.252 175.888 107.259 175.888C107.309 175.909 107.358 175.924 107.408 175.945C107.415 175.945 107.422 175.945 107.429 175.945C108.157 176.243 108.886 176.449 109.614 176.584C109.614 176.584 109.614 176.598 109.614 176.605C110.965 180.511 114.769 183.87 118.213 185.915C122.562 188.493 127.533 189.458 132.547 189.416C137.758 189.373 143.288 188.336 148.118 186.348C150.628 185.318 155.345 182.776 154.73 179.467C156.017 179.709 157.325 179.843 158.633 180.028C159.687 180.177 160.387 178.871 159.39 178.232V178.239ZM143.762 185.524C139.54 186.661 135.085 187.186 130.722 186.824C126.897 186.504 123.015 185.347 119.677 183.415C118.079 182.492 116.58 181.37 115.271 180.056C114.281 179.062 113.567 177.947 112.825 176.818C114.281 176.776 115.752 176.584 117.251 176.399C121.346 175.881 125.426 176.186 129.513 176.669C133.565 177.152 137.638 177.614 141.718 177.252C143.812 177.067 145.827 176.854 147.835 177.614C149.186 178.125 150.247 178.679 151.576 178.53C151.717 178.594 151.852 178.658 151.993 178.714C152.623 178.963 153.259 179.148 153.895 179.304C153.337 183.103 146.746 184.729 143.748 185.531L143.762 185.524ZM120.023 174.518C122.131 173.623 124.139 172.458 126.366 171.876C128.969 171.194 131.302 172.089 133.883 172.139C136.231 172.188 138.621 171.201 140.941 171.904C142.843 172.48 144.512 174.021 146.166 175.185C144.809 175.008 143.423 175.1 142.058 175.128C138.225 175.221 134.435 174.795 130.616 174.51C127.088 174.248 123.538 174.049 120.016 174.51L120.023 174.518ZM151.512 176.762C149.327 175.945 147.453 174.795 145.594 173.403C144.073 172.259 142.539 170.974 140.615 170.619C138.593 170.25 136.563 170.924 134.548 170.96C132.264 170.995 130.079 170.094 127.781 170.285C126.02 170.434 124.379 171.095 122.781 171.819C118.715 173.658 114.833 174.802 110.548 174.546C113.27 173.076 115.568 170.917 117.944 168.851C119.677 167.345 121.473 165.854 123.552 164.846C126.317 163.504 129.181 163.681 132.165 163.852C135.418 164.036 138.649 162.978 141.655 164.541C144.208 165.868 146.541 167.63 148.578 169.668C150.537 171.627 151.993 173.914 153.676 176.094C154.207 176.776 154.779 177.457 155.416 178.068C154.079 177.77 152.778 177.23 151.512 176.762ZM135.51 151.19C133.806 151.041 132.214 150.573 130.638 149.983C130.892 149.23 130.998 148.414 130.935 147.611C130.871 146.788 129.754 146.07 129.117 146.852C128.085 148.123 127.385 149.479 127.095 151.063C125.376 151.645 123.135 150.182 122.025 148.968C120.54 147.349 121.53 146.12 122.668 144.821C123.842 143.486 125.193 142.144 124.867 140.226C124.782 139.743 123.976 139.616 123.771 140.084C122.668 142.648 119.111 144.693 119.62 147.803C120.179 151.226 124.287 152.795 127.385 152.603C127.653 152.845 128.042 152.93 128.424 152.674C128.827 152.461 129.174 152.185 129.478 151.879C129.648 151.737 129.817 151.588 129.987 151.439C132.589 152.788 135.991 153.633 138.84 152.873C139.385 152.724 139.922 152.497 140.389 152.163C140.53 152.312 140.714 152.433 140.919 152.504C144.066 153.569 148.168 153.867 149.426 149.962C149.893 148.506 149.681 146.908 149.016 145.552C148.062 143.599 144.872 142.158 145.261 139.779C145.466 138.494 143.805 138.032 143.331 139.246C142.32 141.845 144.688 143.45 146.244 145.062C147.574 146.454 148.557 148.84 146.767 150.388C145.834 151.197 144.639 151.112 143.5 150.793C144.625 148.492 143.126 145.154 139.936 145.573C138.975 145.701 138.367 146.766 139.116 147.562C141.973 150.573 137.511 151.382 135.524 151.205L135.51 151.19ZM150.063 36.0241C155.112 30.7976 153.697 22.2053 148.429 17.6889C141.881 12.0719 132.646 12.6684 125.108 15.7006C116.898 18.9955 109.155 24.3427 102.557 30.2153C95.8744 36.159 90.1678 43.3525 86.5896 51.6111C82.6155 60.7858 81.2153 70.9901 83.7045 80.7542C83.9025 81.5211 85.1753 81.8122 85.5219 80.9956C88.1807 74.7111 87.9827 67.7236 89.7647 61.1905C91.2992 55.5451 93.8732 50.2193 97.218 45.4331C103.971 35.7684 114.112 28.1489 125.525 25.1167C128.332 24.3711 132.434 23.1994 135.078 25.0031C139.307 27.8862 134.258 33.0416 132.009 35.2927C131.097 36.2087 132.434 37.4585 133.395 36.6845C135.828 34.7246 138.317 31.877 138.692 28.6247C139.024 25.7558 137.256 23.2846 134.576 22.3899C131.628 21.4099 128.417 22.1414 125.525 22.9651C122.399 23.8527 119.323 25.0457 116.41 26.4944C104.721 32.2818 95.238 42.5287 90.2738 54.6291C88.8171 58.1725 87.7847 61.8651 87.1695 65.65C86.5613 69.3852 86.1795 73.1701 85.0622 76.7704C83.2095 61.8012 89.694 47.045 100.011 36.3152C105.385 30.7195 111.665 26.0896 118.347 22.2053C125.108 18.2783 132.893 14.6639 140.863 16.5457C144.795 17.4688 148.493 19.7696 150.268 23.5332C152.014 27.24 151.887 31.9125 149.151 35.1009C148.606 35.7329 149.483 36.6419 150.07 36.0312L150.063 36.0241Z" fill="#147F82"/>
</g>
<defs>
<clipPath id="clip0_197_5897">
<rect width="297" height="338" fill="white"/>
</clipPath>
</defs>
</svg>
