<?xml version="1.0" encoding="utf-8"?>
<!-- Generator: Adobe Illustrator 27.5.0, SVG Export Plug-In . SVG Version: 6.00 Build 0)  -->
<svg version="1.1" xmlns="http://www.w3.org/2000/svg" xmlns:xlink="http://www.w3.org/1999/xlink" x="0px" y="0px"
	 viewBox="0 0 500 500" style="enable-background:new 0 0 500 500;" xml:space="preserve">
<g id="BACKGROUND">
	<path style="fill:#7972D9;" d="M0,142.333c0,0,77.667-75.333,146.333-2.667c56.769,60.076,35.333,134.239,111.333,156.667
		c76,22.428,140.916-56.742,242.333,24.859V500H0V142.333z"/>
</g>
<g id="OBJECTS">
	<g>
		<g>
			<g>
				<g>
					<path style="fill:#FFCDCC;" d="M78.031,165.933c0,0,11.226,38.488,5.212,52.921c-6.014,14.433-36.082-1.203-36.483,22.852
						c-0.401,24.055,90.607-6.415,90.607-6.415l-12.028-12.027l-2.005-34.88L78.031,165.933z"/>
					<path style="fill:#FFB1B0;" d="M92.532,186.085c4.163,6.483,8.693,13.55,14.904,18.277c5.205,3.962,11.093,6.397,17.255,7.605
						l-1.355-23.583l-40.179-19.912C85.746,174.605,88.942,180.495,92.532,186.085z"/>
				</g>
				<path style="fill:#F47676;" d="M81.239,201.615l46.105,5.212l1.604,14.433c0,0,30.47-5.212,31.672,4.009
					c1.203,9.221,13.763,106.349-17.508,108.754c-31.272,2.405-105.573-78.285-98.758-96.727
					c6.815-18.442,28.866-11.626,33.677-16.438C82.842,216.048,81.239,201.615,81.239,201.615z"/>
			</g>
			<g>
				<g>
					<path style="fill:#440A04;" d="M117.321,76.128c0,0,30.87-12.829,52.119,15.235c21.249,28.064,4.811,64.547,4.811,64.547
						s8.018-28.866-12.428-49.313v-6.014l8.018,11.226c0,0,10.023,30.47-6.014,46.105c-16.037,15.636-58.935-42.497-58.935-42.497
						L117.321,76.128z"/>
					<g>
						<path style="fill:#FFCDCC;" d="M109.303,87.755c0,0,58.133-10.097,58.133,58.935c0,67.354-54.524,65.75-80.985,29.668
							C58.087,137.68,65.202,92.565,109.303,87.755z"/>
						<path style="fill:#FFCDCC;" d="M73.621,148.293c0,0-13.631-17.64-17.64,2.406c-4.009,20.046,16.839,30.47,24.857,17.64
							C88.856,155.509,73.621,148.293,73.621,148.293z"/>
					</g>
				</g>
				<g>
					<g>
						<path style="fill:#F47676;" d="M140.367,143.01c-0.091,0.504-0.135,1.013-0.21,1.512l-0.166,1.504
							c-0.059,0.498-0.095,0.998-0.124,1.497c-0.053,0.495-0.072,0.992-0.091,1.488c-0.03,0.495-0.027,0.989-0.035,1.481
							c-0.012,0.492-0.018,0.982,0.014,1.471c0.034,0.488,0.019,0.977,0.074,1.459l0.127,1.446l0.236,1.421
							c0.045,0.48,0.203,0.931,0.296,1.397l0.162,0.694c0.069,0.226,0.154,0.446,0.23,0.669c0.168,0.439,0.287,0.9,0.473,1.329
							l0.582,1.278c0.186,0.432,0.481,0.799,0.714,1.203c0.126,0.197,0.245,0.398,0.361,0.602c0.124,0.198,0.286,0.368,0.427,0.555
							l0.876,1.105l0.897,1.131l-1.169,0.545c-0.813,0.379-1.648,0.714-2.474,1.067c-0.824,0.357-1.661,0.686-2.5,1.013
							c-0.833,0.338-1.686,0.637-2.532,0.949c-0.852,0.3-1.712,0.586-2.584,0.846c0.732-0.541,1.476-1.058,2.227-1.559
							c0.757-0.49,1.508-0.993,2.279-1.456c0.765-0.475,1.531-0.948,2.311-1.393c0.778-0.449,1.547-0.916,2.338-1.339l-0.272,1.676
							l-1.108-1.186c-0.387-0.384-0.715-0.816-1.002-1.279c-0.285-0.46-0.632-0.89-0.864-1.38l-0.712-1.462
							c-0.236-0.488-0.364-1.015-0.538-1.525c-0.08-0.257-0.169-0.512-0.24-0.771l-0.165-0.786
							c-0.094-0.525-0.251-1.044-0.291-1.574l-0.144-1.585l-0.018-1.581c-0.027-0.527,0.056-1.048,0.09-1.57
							c0.033-0.522,0.105-1.039,0.184-1.553c0.064-0.516,0.159-1.027,0.282-1.532c0.21-1.015,0.487-2.012,0.833-2.983
							C139.472,144.862,139.877,143.911,140.367,143.01z"/>
					</g>
					<g>
						<path style="fill:#F47676;" d="M75.225,169.541c-0.805-0.347-1.587-0.763-2.32-1.275c-0.732-0.514-1.442-1.098-1.958-1.988
							c-0.12-0.23-0.227-0.48-0.287-0.762c-0.05-0.283-0.066-0.596,0.01-0.898c0.058-0.305,0.201-0.59,0.367-0.825
							c0.163-0.244,0.362-0.447,0.563-0.616c0.406-0.359,0.841-0.583,1.275-0.809c0.438-0.195,0.88-0.355,1.322-0.499l-0.612,1.143
							c-0.543-1.315-1.167-2.643-1.781-3.943c-0.629-1.299-1.313-2.566-2.017-3.804c-0.706-1.237-1.504-2.409-2.356-3.483
							c-0.424-0.541-0.885-1.031-1.364-1.469c-0.479-0.439-0.995-0.798-1.513-1.022c-0.526-0.236-0.995-0.341-1.551-0.273
							c-0.227,0.014-0.257,0.058-0.353,0.074c-0.082,0-0.196,0.088-0.299,0.119c-0.199,0.109-0.384,0.252-0.548,0.45
							c-0.334,0.388-0.603,0.952-0.776,1.578c-0.178,0.627-0.271,1.311-0.333,2.006c-0.132,1.397-0.064,2.845,0.023,4.297
							c0.117,1.451,0.264,2.915,0.476,4.382c-0.582-1.365-1.061-2.779-1.418-4.23c-0.37-1.451-0.617-2.939-0.692-4.484
							c-0.026-0.774,0.011-1.562,0.15-2.371c0.148-0.802,0.393-1.655,0.958-2.437c0.283-0.387,0.656-0.737,1.086-1.008
							c0.233-0.116,0.421-0.257,0.701-0.337c0.257-0.087,0.572-0.181,0.714-0.193c0.897-0.176,1.934-0.038,2.756,0.304
							c0.839,0.347,1.547,0.841,2.163,1.378c0.617,0.54,1.175,1.118,1.671,1.724c0.999,1.212,1.797,2.524,2.535,3.847
							c0.745,1.321,1.359,2.697,1.934,4.081c0.581,1.386,1.072,2.784,1.508,4.241l0.283,0.945l-0.896,0.198
							c-0.395,0.088-0.783,0.187-1.154,0.309c-0.356,0.127-0.723,0.26-0.998,0.447c-0.145,0.087-0.27,0.187-0.364,0.291
							c-0.101,0.103-0.178,0.208-0.217,0.326c-0.093,0.226-0.093,0.53,0.021,0.872c0.234,0.691,0.796,1.357,1.365,1.976
							C73.893,168.414,74.536,169.002,75.225,169.541z"/>
					</g>
					<g>
						<path style="fill:#440A04;" d="M143.512,134.469c0,0,0.04-0.548,0.314-1.432c0.283-0.872,0.803-2.083,1.755-3.339
							c0.938-1.261,2.324-2.575,4.193-3.563c0.473-0.238,0.958-0.477,1.488-0.65c0.518-0.201,1.066-0.358,1.632-0.479
							c1.131-0.23,2.337-0.338,3.527-0.223c1.195,0.082,2.353,0.39,3.431,0.782c1.059,0.432,2.031,0.971,2.867,1.587
							c0.846,0.607,1.54,1.301,2.159,1.971c0.569,0.711,1.09,1.381,1.459,2.066c0.186,0.343,0.375,0.656,0.525,0.975
							c0.137,0.329,0.274,0.628,0.382,0.924c0.231,0.581,0.39,1.103,0.482,1.555c0.198,0.895,0.242,1.431,0.242,1.431
							s-0.535-0.165-1.35-0.495c-0.756-0.321-1.836-0.779-3.131-1.329c-0.593-0.284-1.251-0.508-1.885-0.792
							c-0.654-0.236-1.309-0.488-1.963-0.695c-0.328-0.113-0.655-0.181-0.975-0.289c-0.324-0.091-0.649-0.133-0.962-0.229
							c-0.637-0.111-1.255-0.238-1.877-0.27c-0.619-0.072-1.242-0.061-1.878-0.044c-0.639,0.011-1.288,0.106-1.955,0.188
							c-1.323,0.216-2.689,0.556-3.933,0.925c-1.248,0.358-2.366,0.736-3.195,0.997
							C144.003,134.312,143.512,134.469,143.512,134.469z"/>
					</g>
					<g>
						<path style="fill:#440A04;" d="M132.813,136.937c0,0-0.605-0.305-1.665-0.838c-1.036-0.518-2.469-1.249-4.128-2.025
							c-1.664-0.766-3.546-1.595-5.512-2.218c-0.491-0.165-0.989-0.29-1.481-0.443c-0.503-0.104-0.999-0.252-1.498-0.34
							c-1-0.218-2-0.31-2.994-0.375c-0.991-0.027-1.983-0.031-2.964,0.105c-0.494,0.034-0.977,0.157-1.471,0.22
							c-0.494,0.065-0.964,0.246-1.458,0.327c-0.961,0.267-1.916,0.563-2.83,0.917c-0.476,0.134-0.898,0.374-1.344,0.542
							c-0.448,0.17-0.877,0.351-1.282,0.555c-0.828,0.376-1.615,0.727-2.298,1.087c-0.702,0.336-1.337,0.629-1.846,0.9
							c-1.042,0.515-1.708,0.785-1.708,0.785s0.193-0.664,0.654-1.781c0.219-0.569,0.558-1.207,0.984-1.93
							c0.211-0.363,0.439-0.749,0.706-1.139c0.275-0.384,0.583-0.773,0.901-1.191c0.311-0.425,0.692-0.815,1.089-1.228
							c0.404-0.404,0.807-0.841,1.293-1.224c0.479-0.39,0.97-0.796,1.516-1.166c0.553-0.363,1.127-0.723,1.743-1.05
							c1.243-0.628,2.612-1.203,4.094-1.509c1.466-0.39,3.031-0.44,4.57-0.424c1.531,0.131,3.065,0.339,4.465,0.832
							c1.413,0.442,2.724,1.052,3.885,1.762c2.35,1.393,4.126,3.141,5.418,4.762c1.29,1.632,2.091,3.166,2.56,4.276
							C132.672,136.246,132.813,136.937,132.813,136.937z"/>
					</g>
					<path style="fill:#0C0C23;" d="M154.357,150.134c-0.093,3.047,0.874,5.55,2.16,5.589c1.287,0.039,2.405-2.399,2.499-5.446
						c0.093-3.047-0.874-5.55-2.16-5.589C155.569,144.648,154.45,147.087,154.357,150.134z"/>
					<g>
						<path style="fill:#F47676;" d="M112.703,177.889c0,0,1.604-0.941,4.278-1.64c0.667-0.171,1.394-0.363,2.177-0.476
							c0.779-0.15,1.61-0.257,2.475-0.322c0.864-0.076,1.764-0.093,2.679-0.102c0.914,0.058,1.847,0.07,2.771,0.212
							c0.923,0.149,1.852,0.256,2.739,0.523c0.447,0.112,0.889,0.232,1.321,0.358c0.43,0.139,0.843,0.315,1.255,0.467
							c0.408,0.161,0.815,0.303,1.201,0.472c0.373,0.2,0.738,0.396,1.093,0.587c0.712,0.372,1.37,0.742,1.917,1.188
							c0.565,0.412,1.07,0.799,1.5,1.158c0.406,0.395,0.742,0.757,1.018,1.049c0.551,0.586,0.838,0.936,0.838,0.936
							s-0.428-0.193-1.13-0.556c-0.35-0.183-0.775-0.398-1.24-0.664c-0.499-0.217-1.069-0.441-1.662-0.717
							c-0.585-0.293-1.27-0.499-1.97-0.752c-0.35-0.123-0.71-0.249-1.077-0.379c-0.383-0.087-0.762-0.206-1.152-0.31
							c-0.391-0.103-0.78-0.23-1.185-0.319c-0.411-0.071-0.824-0.151-1.237-0.24c-0.822-0.198-1.683-0.288-2.535-0.415
							c-0.85-0.146-1.72-0.16-2.565-0.269c-0.853-0.018-1.694-0.121-2.512-0.114c-0.818,0.007-1.613-0.039-2.369-0.009
							c-0.759,0.019-1.477,0.038-2.14,0.054c-1.328,0.063-2.451,0.123-3.239,0.186C113.157,177.855,112.703,177.889,112.703,177.889
							z"/>
					</g>
					<g>
						<path style="fill:#0C0C23;" d="M113.431,144.5c1.041,0.226,2.062,0.513,3.094,0.767l3.061,0.868
							c2.04,0.581,4.056,1.235,6.071,1.891l2.412,0.785l-2.529,0.187c-2.084,0.154-4.169,0.308-6.259,0.383
							c-2.09,0.087-4.181,0.157-6.28,0.118c2.067-0.372,4.142-0.635,6.219-0.882c2.076-0.258,4.158-0.437,6.241-0.617l-0.117,0.972
							c-2.008-0.677-4.015-1.356-5.998-2.109l-2.973-1.132C115.391,145.32,114.401,144.941,113.431,144.5z"/>
					</g>
				</g>
				<g>
					<path style="fill:#510E05;" d="M93.266,68.511c0,0,37.686-8.018,45.303,22.451c6.646,26.585-14.834,52.921-31.672,54.124
						c0,0,16.438-10.424,19.244-26.861c0,0-11.627,26.861-46.105,29.668c0,0,4.41,10.825-0.401,18.843
						c0,0-4.009-25.258-17.239-25.659c0,0-8.419,0.802-6.816,18.041c0,0-14.032-17.64-12.028-39.691S61.995,69.312,93.266,68.511z"
						/>
				</g>
			</g>
		</g>
		<g>
			<g>
				<path style="fill:#FFFFFF;" d="M131.754,219.779c0,0,36.579-12.113,46.579,22.554c10,34.667,28,71.333,28,71.333
					s73.333,14.667,87.333,20c0,0-11.333,17.333-20,20.667c-8.667,3.333-76-6-103.333-19.333
					C143,321.667,131.754,219.779,131.754,219.779z"/>
				<path style="opacity:0.5;fill:#CCCCFF;" d="M206.333,313.667c0,0-14.072-28.673-24.244-59.28
					c-3.041,5.503-5.782,11.155-8.556,16.799c-6.551,13.33-13.147,26.649-20.772,39.407c-0.062,0.103-0.144,0.159-0.231,0.194
					c4.949,11.706,10.855,20.823,17.803,24.213c27.333,13.333,94.667,22.667,103.333,19.333c8.667-3.333,20-20.667,20-20.667
					C279.667,328.333,206.333,313.667,206.333,313.667z"/>
			</g>
			<g>
				<g>
					<path style="fill:#FFFFFF;" d="M39.944,238.461c0,0,2.405-13.912,34.479-17.886l67.91,59.759l-10.579-60.554
						c0,0,24.426-6.447,33.246,3.887c8.82,10.334,44,186.667,42.928,276.333H26.602c0,0,33.961-110.688,50.398-156
						C77,344,27.115,273.836,39.944,238.461z"/>
					<path style="opacity:0.5;fill:#CCCCFF;" d="M188.578,326.9l-24.911-33.233L99,276.333L47.684,293.13
						c0,0,37.316,53.87,63.316,62.537c18.373,6.124,59.403-0.707,81.491-5.844C191.198,340.25,189.923,336.152,188.578,326.9z"/>
				</g>
				<g>
					<g>
						<path style="fill:#7972D9;" d="M175,254.333c0,0,0.522,2.43,1.435,6.683c0.894,4.257,2.23,10.327,3.692,17.639
							c1.488,7.307,3.21,15.835,4.958,24.991c0.885,4.576,1.791,9.306,2.668,14.121c0.889,4.813,1.792,9.701,2.696,14.59
							c0.906,4.888,1.7,9.797,2.531,14.62c0.82,4.825,1.628,9.573,2.409,14.168c0.773,4.597,1.404,9.06,2.052,13.283
							c0.637,4.225,1.24,8.219,1.796,11.907c0.562,3.686,0.921,7.089,1.306,10.094c0.37,3.007,0.692,5.629,0.957,7.788
							c0.531,4.317,0.834,6.784,0.834,6.784s-0.364-2.459-1.001-6.762c-0.318-2.151-0.705-4.763-1.148-7.76
							c-0.463-2.993-0.906-6.381-1.505-10.06c-1.214-7.355-2.63-15.936-4.147-25.13c-0.802-4.59-1.631-9.332-2.473-14.152
							c-0.851-4.817-1.671-9.719-2.594-14.603c-0.881-4.891-1.762-9.783-2.629-14.598c-0.854-4.817-1.739-9.55-2.603-14.129
							c-1.704-9.163-3.294-17.714-4.657-25.044C176.831,264.105,175,254.333,175,254.333z"/>
					</g>
					<g>
						<path style="fill:#7972D9;" d="M143,222.333l9.579,23.904l0.128,0.318l-0.345,0.04l-11.992,1.405l0.106-0.639l11.365,5.265
							l0.288,0.133l-0.059,0.315l-5.938,32.011l-0.116,0.625l-0.568-0.29c-15.137-7.728-30.212-15.574-45.316-23.366l-0.445-0.229
							l0.285-0.409l6.026-8.649l0.224,0.623l-21.297-6.129l-0.101-0.029l-0.054-0.085l-14.438-22.815l14.896,22.519l-0.155-0.114
							l21.369,5.871l0.549,0.151l-0.325,0.472l-5.974,8.684l-0.16-0.639c15.118,7.764,30.265,15.472,45.35,23.3l-0.684,0.335
							l6.062-31.988l0.229,0.449l-11.301-5.401l-1.078-0.515l1.184-0.124l12.008-1.261l-0.217,0.358L143,222.333z"/>
					</g>
				</g>
			</g>
		</g>
	</g>
	<g>
		<g>
			<g>
				<g>
					<path style="fill:#FFCDCC;" d="M327.149,377.064c21.305,0.524,42.608,1.143,63.908,1.825
						c18.807,0.602,37.614,1.242,56.421,1.881c-4.258-9.439-9.288-18.88-15.24-28.24c0,0,48.541-102.018,19.179-125.892
						c-19.703-16.02-44.993,9.784-48.571-23.927c-3.578-33.712-7.101-35.908-1.948-49.129c5.153-13.222-45.933,25.745-45.933,25.745
						s14.118,46.505,0.817,45.556c-13.3-0.949-31.877-1.94-33.139,28.176c-1.282,30.585,24.202,92.975,24.202,92.975
						S337.295,358.717,327.149,377.064z"/>
					<g>
						<path style="fill:#FFB1B0;" d="M330.767,276.251c-1.772,0.705-3.556,1.376-5.341,2.045c2.083,10.08,5.076,20.779,8.175,30.63
							c2.728-2.452,18.118-26.116,17.618-43.112c-4.568,0.872-4.756,2.852-8.847,5.038
							C338.572,272.883,334.774,274.655,330.767,276.251z"/>
						<g>
							<path style="fill:#FFB1B0;" d="M364.022,211.389c5.892-4.057,12.18-9.174,16.257-15.107
								c7.951-11.572,6.358-25.623,6.053-38.964c-13.532,8.404-31.367,22.008-31.367,22.008s6.136,20.214,6.505,33.717
								C362.332,212.511,363.186,211.965,364.022,211.389z"/>
							<g>
								<path style="fill:#FFB1B0;" d="M446.541,279.681c0,0-6.139,52.809-14.303,72.849c0,0,22.775-47.871,27.685-85.703
									C455.458,272.789,450.828,277.636,446.541,279.681z"/>
							</g>
						</g>
						<path style="fill:#FFB1B0;" d="M403.22,250.716c3.426,13.855,5.573,37.229-8.179,61.743c0,0,28.609-16.535,8.159-61.517
							C402.565,251.243,403.855,250.416,403.22,250.716z"/>
					</g>
				</g>
				<g>
					<g>
						<path style="fill:#FFCDCC;" d="M359.717,225.323c0,0-25.857-10.668-41.99,9.498C303.73,252.317,271,327,271,327
							s-19.732,18.365-1.333,24.667c37.691,12.909,69.232-75.141,87.551-79.854C375.536,267.1,359.717,225.323,359.717,225.323z"/>
						<g>
							<path style="fill:#FFB1B0;" d="M327.142,240.203c0,0-1.062-5.73,3.969-4.919c0,0,3.385-3.266,5.752,0.768
								c2.368,4.034,3.676,5.277-0.243,7.425c-3.919,2.148-3.51,4.04-8.176,1.462C323.777,242.36,327.142,240.203,327.142,240.203z"
								/>
							<g>
								<path style="fill:#440A04;" d="M328.671,239.643c0,0-0.644-3.474,2.406-2.982c0,0,2.052-1.98,3.488,0.466
									c1.435,2.446,2.229,3.199-0.148,4.502s-2.128,2.45-4.957,0.886C326.631,240.951,328.671,239.643,328.671,239.643z"/>
								<path style="fill:#510E05;" d="M333.336,238.808c0,0,1.363,1.601-0.356,2.253c0,0-0.471,1.631-1.938,0.795
									c-1.467-0.836-2.1-0.989-1.26-2.367c0.839-1.377,0.371-1.896,2.294-1.929C334.001,237.527,333.336,238.808,333.336,238.808z
									"/>
							</g>
						</g>
					</g>
					<g>
						<path style="fill:#FFCDCC;" d="M288.333,312.333c0,0-53.896,28.671-87.689,47.859c-29.304-4.023-14.632,1.986-7.813,4.476
							c-23.238,13.449-34.802,21.55-7.165,10.331c0,0-44.667,26,3.333,6c0,0-40,22,6.667,2.667c0,0-38,23.333,7.333,2
							c0,0,81.333-22.667,96-42C313.667,324.333,288.333,312.333,288.333,312.333z"/>
						<path style="fill:#FFB1B0;" d="M285.5,354.5c10.5,3,36.5-17.167,29.5-26.167c-11.424-14.688-21.5-21.833-4,2.667
							c0,0-31-30.5-5.5,4c0,0-33-34-3.5,5.5c0,0-34-26.167-5,2.5C297,343,293,350,285.5,354.5z"/>
					</g>
				</g>
			</g>
			<g>
				<g>
					<path style="fill:#FFA943;" d="M473.548,500.176c0.142-43.703-6.09-95.876-31.036-132.843
						c-49.283,9.704-103.038,4.528-110.826,2.249c-12.971,20.612-26.645,46.399-33.225,78.323
						c-3.565,17.293-5.936,35.316-7.507,52.271H473.548z"/>
					<path style="fill:#E28E33;" d="M472.333,462.333c0,0-37.333,22.667-87.333,26.667l-1.333,11h89.882
						C473.548,500,474.333,482.333,472.333,462.333z"/>
				</g>
				<g>
					<path style="fill:#242454;" d="M340.105,376.648c-8.939-1.528-14.381-2.859-14.381-2.859l-10.498,19.495
						c0,0,5.104,2.167,15.56,4.484C333.389,390.549,337.137,383.726,340.105,376.648z"/>
					<path style="fill:#242454;" d="M391.282,381.133c-15.899,0.032-30.801-1.458-42.364-3.107
						c-2.878,7.243-6.244,14.289-9.269,21.475c11.197,1.93,26.314,3.606,45.562,3.781c1.257,0.011,2.473,0.009,3.691,0.007
						C389.859,395.921,390.769,388.542,391.282,381.133z"/>
					<path style="fill:#242454;" d="M430.903,377.268c-10.068,2.161-20.494,3.274-30.695,3.68v22.126
						c16.152-0.602,28.318-2.396,37.23-4.408C435.856,391.425,432.389,384.553,430.903,377.268z"/>
					<path style="fill:#242454;" d="M438.53,381.503c1.752,3.107,2.993,6.531,4.167,9.893c0.631,1.807,1.216,3.628,1.743,5.462
						c9.788-2.852,13.753-5.574,13.753-5.574c-2.499-8.498-9.998-18.996-9.998-18.996c-4.1,1.528-8.337,2.808-12.655,3.889
						C436.446,377.992,437.532,379.732,438.53,381.503z"/>
				</g>
			</g>
		</g>
		<g>
			<g>
				<g>
					<path style="fill:#13132D;" d="M407.677,88.448c0,0-12.893-31.452,16.308-34.563c29.201-3.111,35.551,57.128,2.148,42.283
						c0,0,23.158,8.146,25.189-14.453c1.38-15.359-6.564-22.131-6.564-22.131s13.085,2.24,12.754,24.053
						c-0.361,23.743-17.631,30.673-36.495,17.688c-18.864-12.984,31.351,28.222,39.767-18.102c0,0,1.082,36.914-33.976,25.312
						C387.84,95.639,407.677,88.448,407.677,88.448z"/>
					<path style="fill:#FFA943;" d="M418.492,100.669c-5.119,5.318-13.786,4.871-19.359-1c-5.572-5.87-5.94-14.941-0.82-20.259
						c5.119-5.318,13.786-4.871,19.358,1C423.243,86.28,423.611,95.35,418.492,100.669z"/>
				</g>
				<g>
					<path style="fill:#13132D;" d="M349.282,86.274c0,0-14.366-13.054-32.887-1.474c-18.521,11.58-44.999,82.429,9.259,120.974
						c0,0-25.097-21.593-23.452-54.328c0,0-0.573,32.201,28.25,38.316C359.275,195.878,349.282,86.274,349.282,86.274z"/>
					<g>
						<g>
							<path style="fill:#FFCDCC;" d="M359.309,89.652c0,0-50.375-5.837-47.499,58.379c2.876,64.216,54.31,80.805,76.651,22.416
								C411.394,110.511,397.486,90.396,359.309,89.652z"/>
							<path style="fill:#FFCDCC;" d="M386.104,150.027c0,0,7.53-20.402,18.271-12.417c10.74,7.984-4.751,42.861-19.983,34.044
								C374.077,165.682,386.104,150.027,386.104,150.027z"/>
						</g>
						<path style="fill:#1C1C47;" d="M366.03,69.939c0,0-29.728-0.024-33.126,26.845c-3.398,26.869,19.39,43.975,40.558,47.72
							c0,0-13.92-8.324-20.355-19.557c0,0,13.851,18.432,27.369,19.529c0,0-8.742,33.32-1.264,49.847
							c0,0,5.817-56.734,18.548-56.208c12.732,0.526,8.708,33.965-9.396,34.171c0,0,1.483,6.138,4.313,11.191l7.95,0.71
							c0,0,30.587-33.282,28.629-57.479C427.296,102.512,416.548,65.093,366.03,69.939z"/>
					</g>
				</g>
			</g>
			<g>
				<g>
					<path style="fill:#0C0C23;" d="M309.77,142.237c0,0,0.056-0.492,0.368-1.285c0.304-0.796,0.864-1.906,1.883-3.039
						c1.008-1.122,2.529-2.276,4.499-2.868c0.973-0.317,2.045-0.452,3.117-0.444c1.082-0.015,2.142,0.208,3.168,0.473
						c0.501,0.161,0.993,0.343,1.474,0.534c0.465,0.212,0.933,0.429,1.365,0.677c0.877,0.481,1.657,1.054,2.381,1.627
						c0.695,0.6,1.346,1.198,1.89,1.82c0.57,0.6,1.025,1.231,1.45,1.804c0.423,0.574,0.742,1.149,1.038,1.644
						c0.299,0.492,0.496,0.967,0.674,1.344c0.346,0.76,0.497,1.221,0.497,1.221s-0.45-0.21-1.156-0.626
						c-0.349-0.206-0.773-0.456-1.259-0.743c-0.487-0.276-0.994-0.628-1.574-0.962c-0.576-0.337-1.166-0.734-1.814-1.093
						c-0.627-0.395-1.307-0.747-1.979-1.139c-0.349-0.169-0.693-0.35-1.04-0.534c-0.35-0.176-0.711-0.317-1.059-0.496
						c-0.714-0.305-1.427-0.587-2.145-0.795c-0.712-0.2-1.425-0.371-2.121-0.437c-0.697-0.063-1.387-0.098-2.059-0.02
						c-1.348,0.118-2.649,0.543-3.78,1.057c-1.128,0.518-2.083,1.103-2.754,1.541C310.162,141.943,309.77,142.237,309.77,142.237z"
						/>
				</g>
				<g>
					<path style="fill:#0C0C23;" d="M346.727,145.115c0,0,0.187-0.557,0.7-1.436c0.511-0.877,1.345-2.085,2.619-3.328
						c1.266-1.24,3.005-2.505,5.181-3.362c1.078-0.448,2.279-0.731,3.516-0.901c1.244-0.158,2.531-0.13,3.795,0.034
						c1.255,0.204,2.491,0.52,3.619,1.008c0.565,0.238,1.126,0.475,1.631,0.786c0.519,0.289,1.031,0.57,1.482,0.916
						c0.949,0.63,1.755,1.359,2.495,2.054c0.71,0.728,1.357,1.425,1.874,2.13c0.549,0.677,0.967,1.359,1.331,1.961
						c0.386,0.582,0.658,1.135,0.873,1.593c0.438,0.908,0.639,1.45,0.639,1.45s-0.509-0.303-1.314-0.872
						c-0.393-0.293-0.893-0.623-1.446-1.004c-0.552-0.384-1.17-0.811-1.853-1.241c-0.659-0.462-1.406-0.894-2.167-1.364
						c-0.778-0.437-1.582-0.904-2.436-1.293c-0.841-0.417-1.73-0.759-2.624-1.06c-0.899-0.295-1.815-0.516-2.739-0.648
						c-0.923-0.139-1.851-0.173-2.773-0.145c-0.918,0.067-1.836,0.149-2.723,0.361c-1.776,0.385-3.453,1.028-4.879,1.701
						c-1.439,0.658-2.626,1.347-3.471,1.841C347.219,144.798,346.727,145.115,346.727,145.115z"/>
				</g>
				<g>
					<path style="fill:#F47676;" d="M335.558,149.994c0.379,0.968,0.66,1.972,0.874,2.987c0.227,1.015,0.37,2.047,0.474,3.087
						c0.063,0.52,0.076,1.043,0.095,1.567c0.018,0.525,0.016,1.051,0.011,1.579c-0.017,0.528-0.052,1.056-0.104,1.586
						c-0.042,0.53-0.13,1.058-0.217,1.587c-0.378,2.104-1.071,4.23-2.318,6.109c-0.305,0.469-0.654,0.919-1.028,1.342
						c-0.365,0.434-0.789,0.816-1.217,1.19c-0.447,0.351-0.896,0.703-1.395,0.975c-0.475,0.311-1.003,0.52-1.514,0.746l0.174-1.83
						l1.626,1.386l1.591,1.434c1.038,0.987,2.084,1.965,3.051,3.05c-1.331-0.584-2.584-1.275-3.844-1.956l-1.856-1.069l-1.822-1.117
						l-1.332-0.817l1.506-1.014c0.383-0.257,0.781-0.477,1.133-0.762c0.372-0.256,0.691-0.578,1.026-0.873
						c0.314-0.322,0.617-0.651,0.894-1.007c0.283-0.349,0.54-0.723,0.776-1.112c0.967-1.543,1.612-3.333,2.079-5.195
						c0.23-0.934,0.419-1.888,0.578-2.857c0.17-0.968,0.268-1.952,0.374-2.945C335.37,154.079,335.483,152.063,335.558,149.994z"/>
				</g>
				<g>
					<path style="fill:#F47676;" d="M393.741,167.569c0.133-0.365,0.226-0.741,0.3-1.115c0.065-0.376,0.133-0.747,0.141-1.116
						c0.021-0.366,0.005-0.733-0.071-1.069c-0.026-0.171-0.06-0.337-0.129-0.488c-0.053-0.156-0.108-0.308-0.206-0.434
						c-0.084-0.132-0.153-0.27-0.279-0.366c-0.12-0.098-0.191-0.23-0.342-0.296l-0.389-0.24l-0.449-0.169
						c-0.292-0.118-0.655-0.136-0.968-0.215l-1.044-0.047l-0.955-0.043l0.119-1.015c0.094-0.804,0.21-1.581,0.332-2.368
						c0.129-0.783,0.245-1.57,0.415-2.346c0.164-0.778,0.334-1.555,0.524-2.33c0.195-0.774,0.377-1.553,0.623-2.319
						c0.474-1.535,1.018-3.06,1.727-4.567c0.362-0.749,0.793-1.485,1.309-2.206c0.527-0.711,1.137-1.44,2.097-1.991
						c0.463-0.282,1.074-0.461,1.69-0.495c0.404,0.019,0.361-0.001,0.752,0.055l0.462,0.085l0.396,0.13
						c1.059,0.378,1.84,1.179,2.347,1.977c0.514,0.811,0.793,1.675,0.98,2.521c0.183,0.849,0.26,1.695,0.27,2.531
						c-0.024,1.671-0.283,3.313-0.843,4.849c-0.539,1.532-1.372,2.989-2.534,4.073c0.804-1.366,1.227-2.858,1.473-4.348
						c0.215-1.496,0.271-3.008,0.066-4.463c-0.162-1.444-0.61-2.874-1.328-3.874c-0.363-0.487-0.788-0.823-1.228-0.936l-0.165-0.044
						c-0.041,0.001-0.079-0.003-0.118-0.01c0.006-0.026-0.433-0.004-0.419-0.009c-0.158,0.053-0.326,0.061-0.528,0.204
						c-0.402,0.235-0.846,0.718-1.225,1.273c-0.385,0.56-0.732,1.189-1.047,1.852c-0.654,1.314-1.199,2.734-1.679,4.18
						c-0.493,1.444-0.96,2.913-1.367,4.401c-0.419,1.482-0.841,2.988-1.189,4.478l-0.836-1.057l1.248,0.245
						c0.417,0.159,0.833,0.25,1.232,0.475l0.589,0.337c0.185,0.14,0.359,0.305,0.527,0.462c0.182,0.142,0.293,0.37,0.431,0.555
						c0.146,0.186,0.222,0.408,0.304,0.624c0.097,0.212,0.136,0.433,0.167,0.654c0.048,0.219,0.053,0.436,0.045,0.651
						c0.006,0.216-0.022,0.425-0.061,0.629c-0.026,0.207-0.075,0.406-0.135,0.601c-0.104,0.393-0.252,0.766-0.43,1.12
						C394.163,166.911,393.969,167.253,393.741,167.569z"/>
				</g>
				<g>
					<path style="fill:#0C0C23;" d="M355.782,154.068c0,0,0.056,0.384,0.184,1.038c0.059,0.327,0.152,0.721,0.249,1.167
						c0.105,0.446,0.248,0.939,0.401,1.469c0.171,0.526,0.385,1.078,0.63,1.639c0.268,0.548,0.583,1.1,0.971,1.589
						c0.199,0.24,0.393,0.49,0.644,0.672c0.222,0.221,0.486,0.376,0.75,0.531c0.524,0.322,1.145,0.462,1.783,0.534l0.059,0.011
						l0.029,0.006l0.007,0.001c-0.034-0.001,0.085,0.003-0.073-0.001l0.018,0l0.143-0.001l0.285-0.002l0.569-0.003
						c0.318-0.05,0.566-0.11,0.861-0.17c0.581-0.222,1.168-0.453,1.65-0.862l0.368-0.289l0.332-0.332
						c0.233-0.206,0.426-0.45,0.618-0.686c0.378-0.475,0.705-0.969,0.988-1.44c0.555-0.951,0.948-1.813,1.21-2.423
						c0.263-0.612,0.396-0.977,0.396-0.977s0.017,0.388-0.051,1.065c-0.073,0.675-0.222,1.645-0.624,2.766
						c-0.2,0.56-0.451,1.165-0.819,1.762c-0.182,0.3-0.367,0.612-0.611,0.902c-0.215,0.31-0.49,0.585-0.791,0.852
						c-0.578,0.552-1.319,1.005-2.139,1.303c-0.428,0.119-0.923,0.224-1.349,0.283l-0.569,0.019l-0.285,0.009l-0.142,0.005
						l-0.018,0.001l-0.091-0.003l-0.01-0.001l-0.041-0.006l-0.082-0.013c-0.433-0.089-0.876-0.116-1.293-0.272
						c-0.409-0.178-0.851-0.285-1.206-0.558l-0.549-0.365c-0.171-0.133-0.311-0.298-0.464-0.446c-0.319-0.29-0.549-0.63-0.777-0.961
						c-0.457-0.661-0.72-1.373-0.939-2.035c-0.096-0.335-0.176-0.661-0.248-0.977c-0.048-0.318-0.094-0.626-0.138-0.921
						c-0.136-1.179-0.075-2.157-0.004-2.831C355.688,154.445,355.782,154.068,355.782,154.068z"/>
				</g>
				<g>
					<path style="fill:#0C0C23;" d="M318.609,153.926c0,0,0.056,0.384,0.184,1.038c0.059,0.327,0.152,0.721,0.249,1.167
						c0.105,0.446,0.248,0.939,0.401,1.469c0.171,0.526,0.385,1.078,0.63,1.639c0.268,0.548,0.583,1.1,0.971,1.589
						c0.199,0.24,0.393,0.49,0.644,0.672c0.222,0.221,0.486,0.376,0.75,0.531c0.524,0.322,1.145,0.462,1.783,0.534l0.059,0.011
						l0.03,0.006l0.007,0.001c-0.034-0.001,0.085,0.003-0.073-0.001l0.018,0l0.143-0.001l0.285-0.001l0.569-0.003
						c0.319-0.05,0.566-0.111,0.861-0.17c0.581-0.222,1.168-0.453,1.651-0.862l0.368-0.289l0.331-0.331
						c0.234-0.206,0.427-0.45,0.618-0.686c0.379-0.475,0.705-0.968,0.988-1.44c0.555-0.951,0.948-1.812,1.21-2.423
						c0.263-0.612,0.396-0.977,0.396-0.977s0.017,0.388-0.051,1.065c-0.073,0.675-0.222,1.645-0.624,2.766
						c-0.2,0.56-0.45,1.165-0.819,1.762c-0.182,0.3-0.367,0.612-0.611,0.902c-0.216,0.31-0.49,0.585-0.791,0.852
						c-0.578,0.552-1.319,1.005-2.139,1.303c-0.428,0.119-0.923,0.224-1.349,0.283l-0.569,0.019l-0.285,0.009l-0.142,0.005
						l-0.018,0.001l-0.091-0.003l-0.01-0.001l-0.041-0.006l-0.082-0.013c-0.433-0.089-0.876-0.116-1.293-0.272
						c-0.409-0.178-0.851-0.285-1.206-0.558l-0.549-0.365c-0.171-0.133-0.311-0.298-0.464-0.446
						c-0.319-0.289-0.549-0.629-0.777-0.96c-0.457-0.661-0.72-1.373-0.939-2.035c-0.095-0.335-0.176-0.661-0.248-0.977
						c-0.048-0.318-0.094-0.626-0.138-0.921c-0.136-1.179-0.074-2.157-0.004-2.831C318.516,154.302,318.609,153.926,318.609,153.926
						z"/>
				</g>
				<g>
					<path style="fill:#F47676;" d="M335.688,185.445c0,0,0.063-0.076,0.181-0.218c0.128-0.128,0.325-0.314,0.601-0.543
						c0.274-0.247,0.63-0.444,1.048-0.706c0.21-0.124,0.432-0.271,0.674-0.4c0.245-0.115,0.509-0.218,0.783-0.336
						c0.551-0.217,1.149-0.523,1.804-0.692c0.654-0.174,1.351-0.35,2.077-0.514c0.726-0.196,1.481-0.268,2.25-0.34
						c0.769-0.08,1.553-0.136,2.337-0.195c0.786-0.068,1.561,0.012,2.329,0.035c0.767,0.033,1.52,0.089,2.248,0.148
						c0.728,0.057,1.43,0.122,2.084,0.269c0.657,0.126,1.275,0.268,1.844,0.402c1.138,0.258,2.075,0.533,2.726,0.738
						c0.652,0.204,1.017,0.351,1.017,0.351s-0.395,0.075-1.076,0.155c-0.681,0.08-1.647,0.176-2.793,0.22
						c-0.573,0.027-1.192,0.053-1.844,0.056c-0.652-0.017-1.336,0.041-2.042,0.076c-0.706,0.033-1.434,0.061-2.172,0.066
						c-0.736,0.035-1.493-0.041-2.232,0.039c-0.742,0.043-1.484,0.088-2.217,0.108c-0.733,0.025-1.46,0.018-2.143,0.111
						c-0.689,0.067-1.36,0.115-2.003,0.153c-0.642,0.037-1.22,0.162-1.783,0.217c-0.56,0.067-1.074,0.128-1.512,0.239
						c-0.435,0.109-0.868,0.141-1.167,0.246c-0.325,0.092-0.58,0.165-0.754,0.215C335.781,185.41,335.688,185.445,335.688,185.445z"
						/>
				</g>
			</g>
		</g>
	</g>
	<g>
		<g>
			<g>
				<g>
					<g>
						<g>
							<polygon style="fill:#242454;" points="238.094,308.251 234.448,305.158 273.898,258.209 277.544,261.302 							"/>
						</g>
						<g>
							<path style="fill:#13132D;" d="M271.507,267.078c0.196,0.214,0.398,0.425,0.599,0.636l5.439-6.412l-3.646-3.093l-4.927,5.808
								C269.762,265.104,270.635,266.126,271.507,267.078z"/>
						</g>
					</g>
					<g>
						<path style="fill:#FFA943;" d="M238.479,314.018c-1.583,1.903-4.409,2.163-6.313,0.58l-2.987-2.484
							c-1.903-1.583-2.163-4.409-0.58-6.313l29.283-35.581c1.583-1.903,4.409-2.163,6.313-0.58l2.987,2.484
							c1.903,1.583,2.163,4.409,0.58,6.313L238.479,314.018z"/>
						<path style="fill:#ED902B;" d="M267.474,274.805l-29.283,35.581c-1.583,1.903-4.409,2.163-6.313,0.58l-2.987-2.484
							c-0.451-0.375-0.806-0.821-1.069-1.306c-0.607,1.718-0.126,3.705,1.356,4.938l2.987,2.484c1.903,1.583,4.73,1.323,6.313-0.58
							l29.283-35.581c1.208-1.453,1.34-3.442,0.489-5.007C268.079,273.917,267.824,274.384,267.474,274.805z"/>
					</g>
				</g>
				<g>
					
						<ellipse transform="matrix(0.9954 -0.0958 0.0958 0.9954 -21.6562 29.3038)" style="fill:#CCCCFF;" cx="294.342" cy="240.18" rx="26.747" ry="26.746"/>
					<g>
						<path style="fill:#13132D;" d="M292.904,269.282c-16.047-0.793-28.457-14.493-27.664-30.54
							c0.793-16.047,14.493-28.457,30.54-27.664c16.047,0.793,28.457,14.493,27.664,30.54
							C322.65,257.665,308.95,270.075,292.904,269.282z M295.544,215.854c-13.413-0.663-24.865,9.71-25.528,23.124
							c-0.663,13.413,9.71,24.865,23.124,25.528c13.413,0.663,24.865-9.71,25.528-23.124
							C319.331,227.969,308.957,216.517,295.544,215.854z"/>
						<g>
							<path style="fill:#242454;" d="M290.814,269.179c-16.047-0.793-28.457-14.493-27.664-30.54
								c0.793-16.047,14.493-28.457,30.54-27.664c16.047,0.793,28.457,14.493,27.664,30.54
								C320.561,257.562,306.861,269.972,290.814,269.179z M293.455,215.751c-13.414-0.663-24.865,9.71-25.528,23.124
								c-0.663,13.413,9.71,24.865,23.124,25.528c13.413,0.663,24.865-9.71,25.528-23.124
								C317.241,227.865,306.868,216.414,293.455,215.751z"/>
						</g>
					</g>
				</g>
			</g>
			<g>
				<path style="fill:#FFCDCC;" d="M184.193,300.957c0,0,49.251-19.7,56.638-20.316c15.35-1.279,28.622-0.776,28.169,1.693
					c-0.956,5.214-3.258,5.822-3.258,5.822s7.924,2.178-2.742,8.178c0,0,6.205,0.723-2.667,6.667c0,0,6.227,3.59-6.667,6.667
					c-3.814,0.91-34.801,5.319-42,8l-61.333,13.456L184.193,300.957z"/>
				<path style="fill:#FFCDCC;" d="M224.333,288.333c0,0,26.55-19.898,29.277-18.685s-2.125,12.122-10.334,19.276
					C235.068,296.079,224.333,288.333,224.333,288.333z"/>
			</g>
		</g>
		<g>
			<polygon style="fill:#F47676;" points="206.587,288.056 219,283.667 223.289,323.176 199.643,326.838 			"/>
			<g>
				<path style="fill:#FFFFFF;" d="M126.195,297.733c0,0-59.79-78.879-77.831-67.653c-18.041,11.226-17.239,45.704,2.005,66.953
					c19.244,21.249,55.746,50.651,74.188,49.047c18.442-1.604,93.963-16.662,93.963-16.662l-6.853-47.085L126.195,297.733z"/>
				<g>
					<path style="fill:#7972D9;" d="M50.368,297.033c5.253,5.712,10.849,11.099,16.651,16.244
						c5.807,5.14,11.834,10.032,18.102,14.589c6.258,4.561,12.749,8.84,19.648,12.34c3.452,1.732,7.008,3.285,10.707,4.35
						c1.846,0.535,3.732,0.932,5.633,1.115c0.95,0.095,1.904,0.112,2.851,0.066c0.928-0.048,1.918-0.2,2.874-0.295
						c3.854-0.439,7.668-1.036,11.503-1.64c3.828-0.615,7.654-1.25,11.473-1.924c7.643-1.324,15.273-2.731,22.899-4.155
						l22.862-4.368l22.837-4.493l-0.449,0.636l-6.755-47.099l0.546,0.393l-85.51,15.188l-0.142,0.025l-0.094-0.108
						c-6.989-7.993-13.927-16.032-20.96-23.986L84,250l21.234,23.745c7.097,7.899,14.099,15.882,21.151,23.82l-0.235-0.082
						l85.434-15.61l0.475-0.087l0.071,0.48l6.95,47.07l0.079,0.531l-0.528,0.106c-7.611,1.524-15.235,2.972-22.858,4.427
						l-22.887,4.272c-7.635,1.392-15.274,2.768-22.928,4.06c-3.825,0.658-7.657,1.278-11.493,1.877
						c-3.832,0.587-7.69,1.174-11.548,1.597c-0.975,0.092-1.906,0.236-2.916,0.286c-0.99,0.044-1.981,0.022-2.961-0.08
						c-1.961-0.197-3.887-0.612-5.763-1.165c-3.759-1.099-7.34-2.683-10.811-4.443c-6.933-3.556-13.428-7.875-19.682-12.479
						c-6.229-4.646-12.205-9.62-17.955-14.836C61.084,308.268,55.551,302.809,50.368,297.033z"/>
				</g>
			</g>
		</g>
	</g>
</g>
</svg>
